<?xml version="1.0" standalone="no"?>
<!DOCTYPE svg PUBLIC "-//W3C//DTD SVG 20010904//EN"
 "http://www.w3.org/TR/2001/REC-SVG-20010904/DTD/svg10.dtd">
<svg version="1.0" xmlns="http://www.w3.org/2000/svg"
 width="512.000000pt" height="512.000000pt" viewBox="0 0 512.000000 512.000000"
 preserveAspectRatio="xMidYMid meet">

<g transform="translate(0.000000,512.000000) scale(0.100000,-0.100000)"
fill="#FFFFFF" stroke="#E5E5E5" stroke-width="1">
<path d="M2368 4010 c-237 -27 -414 -100 -666 -275 -92 -64 -93 -65 -57 -65
l36 0 -73 -58 c-73 -59 -283 -271 -275 -279 3 -2 29 5 58 17 30 11 55 20 57
20 19 0 -190 -302 -260 -376 -39 -41 -68 -77 -66 -80 3 -3 38 6 77 19 39 13
71 22 71 21 0 -9 -176 -292 -220 -354 l-53 -75 11 -94 c7 -52 14 -96 15 -98 2
-1 50 13 107 32 246 83 485 83 650 0 61 -30 143 -104 167 -149 10 -20 -6 -8
-48 36 -55 56 -76 70 -149 99 -83 32 -88 33 -240 33 -169 0 -226 -9 -382 -65
-71 -25 -88 -35 -88 -51 0 -35 69 -229 115 -323 54 -112 144 -246 225 -336 90
-101 296 -269 330 -269 18 0 161 149 213 221 66 94 133 240 147 325 19 108 9
245 -23 317 -15 32 -36 72 -48 90 l-22 32 32 -30 c18 -16 49 -63 69 -104 33
-67 37 -83 40 -172 9 -218 -80 -417 -277 -622 -46 -48 -82 -89 -80 -91 2 -2
29 -17 59 -34 82 -46 255 -108 367 -132 189 -40 563 -36 631 7 51 32 191 279
207 366 13 70 27 45 40 -77 5 -41 10 -55 16 -45 19 30 69 159 84 215 22 87 37
268 27 347 -5 37 -5 67 0 67 10 0 53 -68 79 -124 l19 -41 -5 105 c-4 92 -21
200 -41 263 -5 17 0 15 32 -11 21 -18 42 -32 46 -32 3 0 -5 28 -19 62 -37 91
-63 203 -63 267 l1 56 20 -40 c23 -46 57 -85 44 -50 -15 40 -18 189 -4 235
l12 45 8 -51 c5 -28 12 -61 17 -74 7 -20 10 -14 16 34 15 131 106 257 229 317
51 24 73 29 138 29 118 0 272 18 399 47 63 14 130 29 149 32 l35 6 -60 32
c-32 17 -105 45 -161 62 -162 48 -291 64 -518 64 -282 -1 -414 -17 -550 -68
-34 -13 31 44 68 60 65 27 209 39 452 39 200 -1 259 -4 355 -22 190 -35 347
-98 448 -180 23 -19 45 -32 48 -29 11 11 -53 132 -102 193 -135 168 -334 288
-570 345 -127 30 -120 27 -99 43 18 13 17 14 -11 20 -55 11 -234 36 -262 36
-16 0 -37 8 -48 18 -205 190 -454 292 -744 306 -58 2 -140 1 -182 -4z m397
-103 c151 -41 278 -100 377 -175 59 -44 55 -55 -4 -14 -184 126 -493 204 -745
188 -120 -8 -192 -20 -286 -47 -109 -32 -89 -15 25 22 148 48 230 59 398 54
111 -3 166 -10 235 -28z m665 -296 c50 -6 45 -7 -61 -14 -64 -4 -132 -12 -150
-17 l-34 -9 28 24 c24 22 37 25 95 24 37 -1 92 -4 122 -8z m-810 -12 c-36 -15
-79 -59 -96 -98 -18 -43 -18 -122 0 -164 51 -119 218 -155 321 -69 11 9 8 3
-7 -14 -31 -34 -105 -64 -158 -64 -64 0 -147 56 -180 120 -38 76 -34 152 13
221 27 40 82 79 111 78 19 0 19 -1 -4 -10z m147 -48 c56 -26 87 -84 81 -153
-8 -80 -23 -75 -23 7 0 70 -2 76 -31 106 -63 63 -160 45 -199 -37 -10 -22 -20
-34 -22 -27 -5 15 19 63 44 85 44 40 90 46 150 19z m861 -11 c86 -19 191 -53
265 -85 76 -32 213 -125 278 -187 53 -51 47 -51 -9 0 -19 17 -103 70 -175 111
-136 75 -414 159 -582 174 -22 2 -1 4 48 5 56 1 118 -5 175 -18z m-846 -37
c15 -15 31 -41 34 -59 7 -37 -12 -130 -29 -141 -7 -4 -8 2 -3 18 4 13 10 50
13 81 5 54 3 59 -25 88 -39 38 -79 40 -121 4 -17 -14 -31 -32 -31 -39 0 -19
-37 -61 -46 -52 -5 4 -4 11 2 15 6 4 21 26 33 50 38 75 116 90 173 35z m-25
-17 c24 -21 28 -32 27 -73 0 -49 -29 -124 -50 -130 -7 -2 -1 17 12 43 41 82
23 164 -36 164 -24 0 -70 -42 -70 -64 0 -18 -46 -66 -62 -66 -7 0 0 12 14 28
14 15 33 41 42 59 18 36 52 63 78 63 9 0 30 -11 45 -24z m-17 -26 c11 -11 20
-28 20 -38 0 -32 -31 -109 -51 -128 -29 -26 -32 -12 -4 26 28 37 40 87 30 119
-10 34 -32 24 -39 -17 -7 -48 -45 -106 -71 -110 -16 -3 -14 2 11 27 28 28 65
119 43 105 -5 -3 -9 -13 -9 -23 0 -22 -65 -99 -76 -89 -4 4 4 17 18 28 14 11
33 37 41 59 15 35 38 60 60 61 4 0 16 -9 27 -20z m-10 -33 c0 -48 -54 -137
-84 -137 -5 0 2 12 16 28 33 35 48 65 48 96 0 14 5 26 10 26 6 0 10 -6 10 -13z
m-337 -121 c31 -16 55 -31 53 -33 -2 -2 -21 5 -43 17 -51 26 -145 43 -202 36
-35 -4 -40 -3 -21 4 50 18 152 7 213 -24z"/>
</g>
</svg>
