<?xml version="1.0" encoding="UTF-8"?>
<svg version="1.1" xmlns="http://www.w3.org/2000/svg" width="512" height="512">
<path d="M0 0 C8.91348504 5.27532788 14.27582334 13.04816545 17 23 C18.20952807 34.94249818 16.83320628 45.28152116 9.125 54.9375 C4.4076485 59.85736407 -0.34217787 62.82235403 -6.6875 65.3125 C-27.43296541 73.67261293 -44.59825689 91.93089452 -54 112 C-59.95429622 126.51270887 -62.90698098 143.19877747 -58.06640625 158.4921875 C-56.47577196 162.2328 -54.43736231 165.61228359 -52.20703125 169.00390625 C-51 171 -51 171 -51 173 C-50.34 173 -49.68 173 -49 173 C-47.62854267 174.64574879 -46.25783448 176.29212685 -44.890625 177.94140625 C-41.35626433 181.78977003 -37.13211394 184.82428038 -33 188 C-25.30824354 193.97155534 -18.08821556 200.33438808 -11 207 C-10.19304687 207.72960937 -9.38609375 208.45921875 -8.5546875 209.2109375 C6.63356458 223.44661628 16.53886542 244.69590907 17.23828125 265.4765625 C17.26865256 267.52596595 17.29323743 269.57546204 17.3125 271.625 C17.34150391 272.66140625 17.37050781 273.6978125 17.40039062 274.765625 C17.40876953 275.76335937 17.41714844 276.76109375 17.42578125 277.7890625 C17.44765503 279.14572021 17.44765503 279.14572021 17.4699707 280.52978516 C16.8469201 283.80460385 15.59822999 284.97384938 13 287 C9.5 287.5625 9.5 287.5625 6 287 C3.55304666 284.85454627 2.18200407 283.12531469 1.65429688 279.86254883 C1.52278895 277.27909658 1.49768731 274.71174035 1.5 272.125 C0.90070442 248.46097841 -8.88991609 230.50710961 -25.69140625 214.11328125 C-29.61956301 210.51745586 -33.80180199 207.27156872 -38 204 C-71.81990739 176.91500254 -71.81990739 176.91500254 -75.59765625 154.81640625 C-78.38826084 128.3463025 -71.59443268 105.31930069 -55.375 84.125 C-42.22014417 68.18738621 -27.61209307 57.17417477 -8.86328125 48.55859375 C-6.14227748 47.07744709 -4.61901427 45.87404449 -2.6875 43.5 C-2.19636719 42.9121875 -1.70523438 42.324375 -1.19921875 41.71875 C2.17439577 36.88360215 1.41001987 30.6209996 1 25 C-0.64400655 20.24103368 -3.22500764 17.30311832 -7 14 C-14.21239743 11.59586752 -21.46237808 12.52703132 -28.29296875 15.625 C-37.20471602 20.15160179 -45.42147626 25.09673927 -53.4375 31.0625 C-54.08734863 31.54460937 -54.73719727 32.02671875 -55.40673828 32.5234375 C-59.98264039 36.01028665 -64.00497247 39.86883016 -68 44 C-68.78375 44.763125 -69.5675 45.52625 -70.375 46.3125 C-95.80923618 72.35231323 -111.38087031 105.64593181 -111.00390625 142.4296875 C-110.16023274 173.23073155 -99.78398586 197.88551078 -77.6328125 219.5625 C-73.26887168 223.60270634 -68.6564911 227.30489119 -64 231 C-40.5693343 249.75126551 -40.5693343 249.75126551 -35 261 C-34.67 261.66 -34.34 262.32 -34 263 C-31.60595536 276.05842533 -34.2188868 288.22901118 -40 300 C-40.4434375 300.91394531 -40.886875 301.82789063 -41.34375 302.76953125 C-51.55642726 322.59914626 -68.84249052 340.93667583 -86.1640625 354.734375 C-88.18335007 356.34757994 -90.17401204 357.9745146 -92.1484375 359.640625 C-92.67638916 360.08591553 -93.20434082 360.53120605 -93.74829102 360.98999023 C-95.22493162 362.23846255 -96.70039385 363.48832821 -98.17578125 364.73828125 C-105.74384874 370.7990158 -105.74384874 370.7990158 -110.125 371.5 C-113.73052012 370.87295302 -114.85693255 369.93679613 -117 367 C-117.9375 364.5625 -117.9375 364.5625 -118 362 C-115.7343194 356.92796503 -111.95824368 354.47652111 -107.5625 351.375 C-101.1951009 346.74985601 -95.3476453 341.87629706 -89.62890625 336.4765625 C-86.70879394 333.72566918 -83.6909396 331.11646749 -80.62109375 328.53515625 C-78.89087769 326.99092588 -78.89087769 326.99092588 -77.41015625 324.80859375 C-76.94480469 324.21175781 -76.47945312 323.61492187 -76 323 C-75.34 323 -74.68 323 -74 323 C-73.74347656 322.43023437 -73.48695313 321.86046875 -73.22265625 321.2734375 C-71.87059346 318.75937826 -70.27930889 316.80540406 -68.4375 314.625 C-57.76065251 301.38570911 -48.56977326 287.18476593 -49.35546875 269.4609375 C-51.7098707 256.81851249 -67.33990951 248.1711546 -76.91796875 240.734375 C-104.66091503 218.74147961 -122.61843105 191.22970487 -126.75683594 155.609375 C-130.54814721 114.92510302 -116.67595305 76.95738615 -91.16796875 45.578125 C-84.91749979 38.14513488 -78.49069959 31.18613955 -71 25 C-70.24976563 24.33871094 -69.49953125 23.67742187 -68.7265625 22.99609375 C-50.75995248 7.54480913 -23.97982727 -11.66118585 0 0 Z " fill="#000000" transform="translate(295,118)"/>
<path d="M0 0 C14.13651883 10.96239683 22.06006137 25.97888914 24.97509766 43.48779297 C26.89705604 59.92053711 23.20831379 75.22670196 13.74072266 88.82763672 C2.94354003 102.24817574 -10.61914701 111.80980794 -24.61474609 121.62060547 C-42.18770188 133.80745033 -42.18770188 133.80745033 -52.07177734 152.26513672 C-53.28596407 159.51191433 -53.02028975 166.27155304 -49.00927734 172.57763672 C-42.57453615 181.18793326 -34.11698007 187.89905098 -25.94482422 194.78125 C-23.69406916 196.67926506 -21.44900402 198.58389452 -19.20654297 200.49169922 C-17.79515699 201.69093898 -16.3790762 202.88464821 -14.96240234 204.07763672 C7.49072936 223.52748329 20.82835475 250.05435565 24.55322266 279.39013672 C24.63749512 280.05029785 24.72176758 280.71045898 24.80859375 281.390625 C29.59499146 323.99060291 11.18668992 364.28755765 -14.63427734 396.95263672 C-15.96253635 398.58178705 -17.29626513 400.20648709 -18.63427734 401.82763672 C-19.51717133 402.90960148 -20.39997904 403.99163665 -21.28271484 405.07373047 C-22.19100737 406.17966073 -23.0998546 407.28513567 -24.00927734 408.39013672 C-24.84201172 409.40205078 -25.67474609 410.41396484 -26.53271484 411.45654297 C-29.41093306 414.7039007 -30.08012108 414.7829467 -34.50927734 415.14013672 C-37.58282479 415.09551171 -38.4542147 414.95229547 -41.07177734 413.14013672 C-42.84564967 410.51480567 -43.55686315 409.00161865 -43.63427734 405.82763672 C-41.45089401 401.5420093 -38.37736181 398.13704502 -35.19677734 394.57763672 C-28.37074571 386.75986899 -22.37513658 378.46643769 -16.63427734 369.82763672 C-16.2151709 369.19744629 -15.79606445 368.56725586 -15.36425781 367.91796875 C3.09256478 339.73440814 11.67589939 305.18142801 5.36572266 271.82763672 C1.40154355 253.03770148 -7.461806 236.71489333 -20.63427734 222.82763672 C-21.24916016 222.15732422 -21.86404297 221.48701172 -22.49755859 220.79638672 C-26.56390234 216.52624054 -31.14562079 212.91512492 -35.73193359 209.22216797 C-39.6350307 206.00198152 -43.35072052 202.59910312 -47.06787109 199.16748047 C-49.29572872 197.13629825 -51.57005691 195.19588325 -53.88427734 193.26513672 C-62.03553536 186.11403306 -67.6574768 177.27865414 -70.44677734 166.76513672 C-70.50865234 165.79576172 -70.57052734 164.82638672 -70.63427734 163.82763672 C-70.68455078 163.10318359 -70.73482422 162.37873047 -70.78662109 161.63232422 C-71.32801519 147.81594691 -65.50757612 136.11093315 -57.18505859 125.44482422 C-56.67330078 124.91115234 -56.16154297 124.37748047 -55.63427734 123.82763672 C-54.97427734 123.82763672 -54.31427734 123.82763672 -53.63427734 123.82763672 C-53.30427734 122.83763672 -52.97427734 121.84763672 -52.63427734 120.82763672 C-46.13879865 114.55843495 -38.44905602 109.50786705 -31.06298828 104.35913086 C-24.42113879 99.71888385 -17.99624981 94.84450643 -11.63427734 89.82763672 C-10.73193359 89.13669922 -9.82958984 88.44576172 -8.89990234 87.73388672 C-6.4481925 85.85135566 -6.4481925 85.85135566 -4.63427734 82.82763672 C-3.97427734 82.82763672 -3.31427734 82.82763672 -2.63427734 82.82763672 C-2.36615234 82.28623047 -2.09802734 81.74482422 -1.82177734 81.18701172 C-0.96303043 79.4808172 -0.08561094 77.78397779 0.80322266 76.09326172 C7.66950334 62.84134 9.18334846 51.70716079 5.40087891 36.99951172 C1.75478339 25.82732469 -4.49196196 17.34133296 -14.94677734 11.83447266 C-25.2812492 6.62955897 -34.54089799 5.14656888 -45.82177734 8.32763672 C-84.55949749 21.40850194 -118.39364407 53.62181698 -136.61083984 89.69433594 C-139.26088287 95.21820902 -141.61009352 100.8725289 -143.90771484 106.55029297 C-144.20000977 107.27104004 -144.49230469 107.99178711 -144.79345703 108.734375 C-145.34563083 110.10903766 -145.88828061 111.4875719 -146.42041016 112.87011719 C-147.80221924 116.34076997 -148.4330803 117.69350536 -151.63427734 119.82763672 C-155.94061354 120.38586548 -157.95410972 120.26691165 -161.63427734 117.89013672 C-164.10099592 114.11297391 -163.77371875 112.67971103 -163.17773438 108.3894043 C-162.19449046 103.75455328 -160.41794377 99.49004486 -158.57177734 95.14013672 C-158.16548096 94.17116455 -157.75918457 93.20219238 -157.34057617 92.20385742 C-144.94874676 63.22199261 -123.14775351 35.46514059 -97.63427734 16.82763672 C-97.0501709 16.38887207 -96.46606445 15.95010742 -95.86425781 15.49804688 C-68.04017677 -5.35435894 -32.29685752 -23.16843589 0 0 Z " fill="#000000" transform="translate(313.63427734375,97.17236328125)"/>
<path d="M0 0 C2.8100346 1.79363911 4.50940468 3.01880935 6 6 C6.39371663 9.54344967 6.37365938 11.40648547 4.453125 14.45703125 C1.41331903 17.60816769 -1.6212836 19.0801325 -5.5625 20.875 C-15.74514026 25.7590282 -24.50084195 31.18917472 -32.7890625 38.94140625 C-34.5430576 40.57454303 -36.30603345 42.08420485 -38.1875 43.5625 C-55.82822175 58.85112552 -67.90337912 83.05983859 -71 106 C-72.35765522 125.21958516 -71.80039197 143.44485372 -61 160 C-60.57203125 160.66902344 -60.1440625 161.33804688 -59.703125 162.02734375 C-52.37599822 172.56547609 -42.0167264 181.14865416 -32 189 C-13.22440194 203.84516412 2.90957973 218.91792831 6 244 C8.58078005 273.58219129 -6.19338302 299.66387791 -24 322 C-25.10794922 323.41732422 -25.10794922 323.41732422 -26.23828125 324.86328125 C-38.55940755 340.52572994 -54.39849314 354.93232876 -71 366 C-75.02035732 366.44670637 -77.29621811 366.38249016 -80.875 364.4375 C-83.66605308 361.23599794 -84 359.21894271 -84 355 C-81.80532674 350.22242608 -78.28321278 347.3910273 -74.3125 344.125 C-73.12067442 343.12810528 -71.9292719 342.13070456 -70.73828125 341.1328125 C-69.82526245 340.37037231 -69.82526245 340.37037231 -68.89379883 339.5925293 C-44.3996621 318.99497175 -21.14509297 294.04953042 -14.3125 261.75 C-13.13993084 247.67917013 -13.68235211 235.8001771 -22 224 C-28.78334593 216.05393091 -36.73227281 209.33859084 -45 203 C-65.4518664 186.64440079 -65.4518664 186.64440079 -67 182 C-67.66 182 -68.32 182 -69 182 C-87.66136055 160.46051917 -92.17973387 135.87968784 -91 108 C-88.5082936 73.62622358 -67.98331156 43.60109104 -42.8359375 21.3359375 C-14.04048808 -2.38262828 -14.04048808 -2.38262828 0 0 Z " fill="#000000" transform="translate(283,140)"/>
<path d="M0 0 C0.72017303 0.00304138 1.44034607 0.00608276 2.18234253 0.00921631 C13.4211696 0.07924015 23.96981081 0.86853378 34.6875 4.4375 C35.37537598 4.65712402 36.06325195 4.87674805 36.77197266 5.10302734 C60.37606051 12.77557764 80.29845325 28.37628698 92.10913086 50.42700195 C104.417241 74.78587891 108.29188532 101.6177957 103.6875 128.4375 C102.6875 131.4375 102.6875 131.4375 99.4375 133.3125 C95.6875 134.4375 95.6875 134.4375 92.8125 133.5625 C89.86186538 130.61186538 89.82711616 128.55617671 89.6875 124.4375 C89.84347656 123.58929688 89.99945313 122.74109375 90.16015625 121.8671875 C94.18736931 95.67538702 88.00926323 67.99085408 72.6875 46.4375 C58.28507843 27.72870653 38.01205733 18.92480517 15.2890625 14.82421875 C-20.37277582 10.99501919 -53.71846567 22.87252908 -81.52783203 44.96386719 C-87.30027614 49.73027932 -92.91655989 54.82740151 -98.046875 60.28125 C-99.3125 61.4375 -99.3125 61.4375 -101.3125 61.4375 C-101.53421875 61.98277344 -101.7559375 62.52804688 -101.984375 63.08984375 C-103.72921796 66.17411027 -106.10599122 68.48504993 -108.5625 71 C-120.05792227 83.12337537 -129.71567427 97.13733268 -138.3125 111.4375 C-138.97507813 112.50871094 -139.63765625 113.57992187 -140.3203125 114.68359375 C-151.91344045 134.71015399 -156.96518605 157.76722591 -160.3125 180.4375 C-160.43705566 181.26507813 -160.56161133 182.09265625 -160.68994141 182.9453125 C-162.20171958 193.3732224 -162.53010399 203.78602658 -162.85083008 214.30786133 C-163.13391732 222.31811659 -163.79813697 230.22950276 -164.75 238.1875 C-164.87238037 239.22849854 -164.99476074 240.26949707 -165.12084961 241.34204102 C-166.69071948 253.70387255 -166.69071948 253.70387255 -170.125 257.375 C-172.3125 258.4375 -172.3125 258.4375 -174.875 258.3125 C-178.80136532 256.90303552 -178.80136532 256.90303552 -180.3125 254.4375 C-180.76424058 249.64904988 -180.15528581 245.35400492 -179.375 240.625 C-178.29726566 233.58581208 -178.02505556 226.61362599 -177.8125 219.5 C-176.07695864 164.47424427 -163.69762009 115.77100088 -128.1953125 72.72265625 C-126.93298481 71.19057803 -125.69853436 69.63512859 -124.4921875 68.05859375 C-113.12785468 53.46322513 -99.40658598 40.1361743 -84.3125 29.4375 C-83.72581543 29.01710449 -83.13913086 28.59670898 -82.53466797 28.16357422 C-69.78793534 19.11055537 -56.53380051 11.57923698 -41.6875 6.5625 C-40.87780762 6.28833252 -40.06811523 6.01416504 -39.23388672 5.73168945 C-26.18105871 1.5599134 -13.60994804 -0.12270278 0 0 Z " fill="#000000" transform="translate(276.3125,39.5625)"/>
<path d="M0 0 C2.4549439 1.91063507 4.75223237 3.89553962 7.02734375 6.015625 C7.71699219 6.62664062 8.40664063 7.23765625 9.1171875 7.8671875 C12.70228808 11.19568579 15.36932838 13.97084048 16.02734375 19.015625 C14.488142 22.58009221 13.28462716 23.84410273 10.02734375 26.015625 C6.29992806 25.93459422 4.54735623 25.49230311 1.77734375 22.953125 C1.37257813 22.50839844 0.9678125 22.06367187 0.55078125 21.60546875 C-11.60680869 8.91793258 -28.18508864 3.38281538 -45.50390625 2.8125 C-77.79307746 2.30377949 -103.48784125 14.876678 -127.59765625 35.328125 C-128.17781494 35.81958008 -128.75797363 36.31103516 -129.35571289 36.81738281 C-131.93972175 39.05891431 -134.10287285 41.17917884 -136.24609375 43.87109375 C-137.10074219 44.93263672 -137.10074219 44.93263672 -137.97265625 46.015625 C-138.63265625 46.015625 -139.29265625 46.015625 -139.97265625 46.015625 C-140.22402344 46.59054688 -140.47539062 47.16546875 -140.734375 47.7578125 C-142.13512761 50.31186615 -143.76105683 52.04517514 -145.78515625 54.140625 C-155.93407602 65.22259062 -164.51068461 77.99948478 -171.97265625 91.015625 C-172.33311035 91.62631836 -172.69356445 92.23701172 -173.06494141 92.86621094 C-187.96758116 118.27752934 -192.48786766 147.05374542 -193.80581665 176.09631348 C-196.28179373 229.05716636 -196.28179373 229.05716636 -214.88671875 246.44140625 C-219.90502782 250.22863201 -225.74888391 254.22297929 -232.19140625 253.80859375 C-234.97265625 253.015625 -234.97265625 253.015625 -237.41015625 250.828125 C-238.97265625 248.015625 -238.97265625 248.015625 -238.91015625 244.890625 C-237.92545008 241.87085941 -237.34592829 241.00044669 -234.97265625 239.015625 C-233.38848138 238.24398733 -231.78158983 237.51804374 -230.16015625 236.828125 C-221.31375633 232.46921574 -218.4415766 225.48378193 -215.05078125 216.5546875 C-212.65235809 208.68160279 -211.64830587 200.87640164 -211.2265625 192.6796875 C-211.11010038 190.70702686 -210.99356137 188.73437076 -210.87695312 186.76171875 C-210.70544742 183.71743165 -210.53692254 180.67300618 -210.37084961 177.62841797 C-209.61248009 163.94202615 -208.33944461 150.52270115 -205.97265625 137.015625 C-205.7914624 135.97937988 -205.61026855 134.94313477 -205.42358398 133.87548828 C-200.39988067 107.38687082 -188.06611332 83.39648584 -171.97265625 62.015625 C-171.56934082 61.47341309 -171.16602539 60.93120117 -170.75048828 60.37255859 C-158.5006012 43.92581378 -145.23169127 28.63583329 -128.97265625 16.015625 C-128.43044434 15.58636719 -127.88823242 15.15710938 -127.32958984 14.71484375 C-92.62288721 -12.63281635 -39.43143362 -26.32216594 0 0 Z " fill="#000000" transform="translate(328.97265625,74.984375)"/>
<path d="M0 0 C1.70703125 1.6171875 1.70703125 1.6171875 3 4 C3.07421875 7.08984375 3.07421875 7.08984375 2.6875 10.9375 C0.05321122 43.80531851 2.18701505 75.76896191 24.12597656 102.14575195 C25.43111976 103.66957853 26.76179899 105.17142416 28.09375 106.671875 C30 109 30 109 30 111 C30.99 111.33 31.98 111.66 33 112 C34.3671875 113.42578125 34.3671875 113.42578125 35.875 115.3125 C39.02083134 119.0177365 42.41400816 122.35251984 46 125.625 C46.82479858 126.37946411 46.82479858 126.37946411 47.66625977 127.14916992 C50.08225865 129.35329321 52.50408516 131.55092644 54.92822266 133.74609375 C78.26518741 154.93306746 78.26518741 154.93306746 79.15625 167.140625 C78.35298027 185.74970697 59.57496686 201.18232631 47 213 C43.47253293 216.17938317 39.76644662 219.1094712 36 222 C35.01 222.78375 34.02 223.5675 33 224.375 C26.97744723 229.12218865 20.80993778 233.67869673 14.5625 238.125 C13.56923706 238.85372314 13.56923706 238.85372314 12.5559082 239.59716797 C8.59453219 242.36857533 6.00565109 243.70254752 1 243 C-1.3125 241.875 -1.3125 241.875 -3 240 C-4.06040583 236.74808878 -4.36083496 234.89076412 -3.06640625 231.6953125 C-0.03149253 227.73672938 3.8450699 225.44299546 8 222.75 C15.37547082 217.83716531 22.27308949 212.77603895 29 207 C30.04134738 206.13996013 31.08440448 205.28198741 32.12890625 204.42578125 C52.54000973 188.4542461 52.54000973 188.4542461 63 166 C61.61974426 162.88274079 61.61974426 162.88274079 59 160 C58.48824219 159.3709375 57.97648437 158.741875 57.44921875 158.09375 C54.03801561 154.01598992 50.38937734 150.46551981 46.34765625 147.0234375 C32.3084843 134.92311958 18.69659963 122.20160834 8 107 C7.60828613 106.44731445 7.21657227 105.89462891 6.81298828 105.32519531 C-2.22794802 92.40318079 -8.44908463 78.39851927 -12 63 C-12.17805176 62.24315918 -12.35610352 61.48631836 -12.53955078 60.70654297 C-14.14238041 53.10767989 -14.30658246 45.62263191 -14.26074219 37.89501953 C-14.25008493 35.7669581 -14.26066241 33.63975365 -14.2734375 31.51171875 C-14.30512294 5.40140467 -14.30512294 5.40140467 -9 0 C-5.4314543 -1.18951523 -3.60804584 -0.97717908 0 0 Z " fill="#000000" transform="translate(157,230)"/>
<path d="M0 0 C4.36001273 3.58338546 6.37099239 7.37393211 8.125 12.625 C8.37652832 13.36137695 8.62805664 14.09775391 8.88720703 14.85644531 C16.85262266 39.41862779 15.65821856 65.90960163 3.94091797 89.09570312 C-6.62366932 108.46639099 -22.83708556 121.43821238 -40.16943359 134.60351562 C-42.16789875 136.12808494 -44.15665694 137.6647746 -46.14453125 139.203125 C-49.73173382 141.97591815 -53.33634179 144.72438262 -56.95605469 147.45458984 C-58.27862706 148.45457589 -59.59727502 149.45978274 -60.91113281 150.47119141 C-62.63484261 151.79294951 -64.37584627 153.08719851 -66.125 154.375 C-67.09695313 155.10460937 -68.06890625 155.83421875 -69.0703125 156.5859375 C-72.84868462 158.40963178 -74.99436954 158.06017285 -79 157 C-81.0625 154.8125 -81.0625 154.8125 -82 152 C-80.89924312 146.61285208 -78.76044575 144.54166182 -74.375 141.375 C-73.80450928 140.95532959 -73.23401855 140.53565918 -72.64624023 140.10327148 C-71.41496988 139.19808646 -70.17936711 138.29877092 -68.93994141 137.40478516 C-65.61684849 134.99840753 -62.34294806 132.52651278 -59.0625 130.0625 C-58.05449341 129.30851929 -58.05449341 129.30851929 -57.02612305 128.53930664 C-50.80573481 123.87942872 -44.67467032 119.11364451 -38.59765625 114.26855469 C-37.07255711 113.05761105 -35.53652679 111.86047268 -34 110.6640625 C-20.23302299 99.7652057 -10.53712113 86.74511028 -5 70 C-4.70222656 69.17242187 -4.40445313 68.34484375 -4.09765625 67.4921875 C1.4295298 49.61161326 -1.01638821 27.39967327 -9.3046875 10.7578125 C-10.43848757 7.891464 -10.01294924 5.83625786 -9 3 C-6.69658565 -0.63697003 -4.0756771 -0.65210834 0 0 Z " fill="#000000" transform="translate(350,102)"/>
<path d="M0 0 C2.89908997 2.03719836 3.8289829 3.40801773 4.8125 6.8125 C3.477526 12.04970571 -0.67686705 14.07101348 -5 17 C-6.70928011 18.18613681 -8.4176251 19.37362239 -10.125 20.5625 C-10.95257813 21.13226563 -11.78015625 21.70203125 -12.6328125 22.2890625 C-14.86924415 23.9054933 -16.93355921 25.61114362 -19 27.4375 C-22 30 -22 30 -24 30 C-24 30.66 -24 31.32 -24 32 C-25.43359375 33.41015625 -25.43359375 33.41015625 -27.4375 35.0625 C-57.60044214 60.74896309 -83.22398979 98.34640042 -93.7109375 136.609375 C-96.48050407 146.48050407 -96.48050407 146.48050407 -100 150 C-106.46153846 149.53846154 -106.46153846 149.53846154 -109 147 C-110.80590056 138.1415825 -106.93175909 129.2124935 -104 121 C-103.58878906 119.81535156 -103.17757812 118.63070312 -102.75390625 117.41015625 C-92.78758368 90.64599622 -75.81035435 67.2653127 -57.34765625 45.77734375 C-55.03861504 43.12270366 -55.03861504 43.12270366 -53.30859375 40.62890625 C-52.87675781 40.09136719 -52.44492188 39.55382812 -52 39 C-51.34 39 -50.68 39 -50 39 C-49.76539063 38.43925781 -49.53078125 37.87851563 -49.2890625 37.30078125 C-43.13878532 26.32346835 -13.45393612 -1.59737369 0 0 Z " fill="#000000" transform="translate(199,41)"/>
<path d="M0 0 C2.43384925 2.10456376 4.37304931 4.55227893 6.375 7.0625 C7.52681943 8.44293224 8.6804532 9.82185271 9.8359375 11.19921875 C10.38475586 11.86099121 10.93357422 12.52276367 11.49902344 13.20458984 C26.5414919 31.19780928 49.02665722 42.48209543 72.25 44.75 C74.16559422 44.85513971 76.08248726 44.93916856 78 45 C78.90363281 45.03996094 79.80726563 45.07992187 80.73828125 45.12109375 C87.14260337 45.27167947 93.44727552 44.76402965 99.8125 44.125 C100.61308838 44.04660889 101.41367676 43.96821777 102.23852539 43.88745117 C107.01733136 43.36819973 111.38303793 42.39423112 116 41 C122.07352941 40.38235294 122.07352941 40.38235294 125.4375 42.625 C127.49791771 45.75683492 127.6767545 47.31544773 127 51 C123.40540717 55.4371817 119.95064239 57.07466638 114.5 58.25 C113.79222412 58.41274414 113.08444824 58.57548828 112.35522461 58.74316406 C105.92374419 60.15165466 99.58322359 60.82535854 93 61 C91.06060547 61.05994141 91.06060547 61.05994141 89.08203125 61.12109375 C58.08553235 61.76222476 31.14326268 53.48407033 8.109375 32.02734375 C5.70479308 29.71627335 3.32675441 27.38963967 1 25 C0.45859375 24.49210937 -0.0828125 23.98421875 -0.640625 23.4609375 C-5.14412132 19.17282579 -9.27484976 14.64568862 -12 9 C-12.06583159 5.44509394 -11.75120892 3.94717646 -9.5625 1.1875 C-6.11107217 -1.43558515 -4.13911875 -1.26939561 0 0 Z " fill="#000000" transform="translate(290,262)"/>
<path d="M0 0 C1.25979953 0.66719438 2.52327958 1.32750406 3.79101562 1.97949219 C14.09800173 7.29623079 26.70030661 14.89454798 32.94628906 25.03076172 C33.33480841 28.20366976 33.53635469 30.13013523 31.75878906 32.84326172 C29.4398581 34.36256131 27.70555535 34.77053151 24.94628906 35.03076172 C23.12988281 33.91357422 23.12988281 33.91357422 21.38378906 32.15576172 C-1.62717407 10.59632502 -31.22032334 -1.8766471 -62.80126953 -1.05810547 C-80.36526689 -0.36514047 -97.93331424 3.61761353 -114.24121094 10.11279297 C-117.07719487 11.03842661 -119.0971756 11.34117249 -122.05371094 11.03076172 C-125.08618507 8.89983395 -125.93009081 7.69006906 -126.61621094 4.03076172 C-126.05371094 1.03076172 -126.05371094 1.03076172 -124.11621094 -0.93798828 C-120.10692538 -3.59720829 -116.05016974 -4.99833758 -111.49121094 -6.46923828 C-110.57170654 -6.77039551 -109.65220215 -7.07155273 -108.70483398 -7.38183594 C-71.72004989 -19.11171969 -34.5265258 -18.29214325 0 0 Z " fill="#000000" transform="translate(337.0537109375,32.96923828125)"/>
<path d="M0 0 C5.03782468 3.94856529 5.25497268 10.02409666 6 16 C6.11214844 16.83789062 6.22429687 17.67578125 6.33984375 18.5390625 C10.63735061 58.45289337 3.76453746 100.62960953 -19.97265625 133.58984375 C-22.12745265 136.15151885 -24.23956065 138.10687572 -27 140 C-30.22499219 139.93550016 -32.15186814 139.58491853 -34.8125 137.75 C-36.40030416 135.41007808 -36.86503924 133.83417605 -37 131 C-35.23235678 127.72027644 -33.13110636 124.82864649 -30.875 121.875 C-9.33956447 91.168754 -6.96783541 51.55728805 -10.43359375 15.39453125 C-10.49691895 14.66395508 -10.56024414 13.93337891 -10.62548828 13.18066406 C-10.80098214 11.19295554 -11.00308004 9.20764672 -11.20703125 7.22265625 C-11 4 -11 4 -9.23046875 1.59375 C-5.97831722 -0.73002902 -3.8953169 -0.62603307 0 0 Z " fill="#000000" transform="translate(355,350)"/>
<path d="M0 0 C2.62184628 0.00870302 5.24163804 -0.02072264 7.86328125 -0.05200195 C9.54557227 -0.05360992 11.22786712 -0.05304422 12.91015625 -0.05004883 C14.07410416 -0.0668998 14.07410416 -0.0668998 15.26156616 -0.08409119 C18.78694003 -0.0383119 20.81727086 0.16394559 23.68994141 2.28564453 C25.72682397 5.2012663 25.71782612 6.96396689 25.19921875 10.44604492 C23.65546983 12.80229328 22.64920686 13.33240132 19.92358398 14.02075195 C17.14132531 14.4550825 14.60983728 14.51238051 11.796875 14.43823242 C-15.08998464 13.94432438 -41.60370601 16.92161354 -65.80078125 29.44604492 C-66.92355469 29.96811523 -68.04632813 30.49018555 -69.203125 31.02807617 C-78.17211325 35.25985295 -85.9594515 40.41625129 -93.80078125 46.44604492 C-94.77015625 47.18983398 -95.73953125 47.93362305 -96.73828125 48.69995117 C-100.61011863 51.77432204 -104.31415041 54.86328379 -107.6796875 58.48901367 C-108.16026611 59.00085205 -108.64084473 59.51269043 -109.13598633 60.04003906 C-110.47774139 61.49200559 -111.78870354 62.97225145 -113.09765625 64.45385742 C-115.80078125 66.44604492 -115.80078125 66.44604492 -119.50390625 66.36010742 C-122.80078125 65.44604492 -122.80078125 65.44604492 -124.80078125 63.69604492 C-126.10383273 60.76417909 -125.71086308 59.49776211 -124.80078125 56.44604492 C-120.439425 50.29011565 -114.61959635 45.19297303 -108.80078125 40.44604492 C-108.30835938 40.0412793 -107.8159375 39.63651367 -107.30859375 39.21948242 C-89.4433323 24.60245033 -70.85803593 14.01219416 -48.73828125 7.07104492 C-47.21605957 6.58849243 -47.21605957 6.58849243 -45.66308594 6.09619141 C-30.59054735 1.58373387 -15.68950437 -0.0795888 0 0 Z " fill="#000000" transform="translate(268.80078125,-0.446044921875)"/>
<path d="M0 0 C12.17109238 11.07706161 15.5009898 42.11173226 16.2734375 57.51953125 C16.7502713 75.31054089 13.91248317 92.51115825 11 110 C11.55461914 109.94875977 12.10923828 109.89751953 12.68066406 109.84472656 C15.20240375 109.62429846 17.72556029 109.43685983 20.25 109.25 C21.12269531 109.16878906 21.99539063 109.08757812 22.89453125 109.00390625 C29.37825797 108.55845938 29.37825797 108.55845938 32.57421875 110.828125 C34 113 34 113 34.5625 115.5 C33.75095097 119.10688458 32.03461041 119.97145123 29 122 C21.53667578 124.07314562 13.28151324 125.15482401 6 122 C2.57081761 120.02248013 0.39670726 117.94019621 -1.171875 114.22265625 C-3.40295311 105.54039472 -0.95537271 95.47459862 0.14916992 86.67602539 C3.32837817 61.28555009 2.06610899 35.28693892 -9.2734375 11.82421875 C-10.48590381 8.7800157 -10.44799647 6.19997476 -10 3 C-7.77575862 -1.05596957 -4.19531424 -0.79566304 0 0 Z " fill="#000000" transform="translate(383,80)"/>
<path d="M0 0 C3.4375 0.9375 3.4375 0.9375 5.375 2 C7.11426241 5.17159616 6.84056286 8.44045692 6.4375 11.9375 C5.47464782 15.2092431 4.14699864 18.26749314 2.75 21.375 C2.41033203 22.16970703 2.07066406 22.96441406 1.72070312 23.78320312 C-2.06763049 32.48574894 -6.68503639 40.46332466 -12.1875 48.1875 C-12.70675049 48.91912354 -13.22600098 49.65074707 -13.76098633 50.40454102 C-18.67401857 57.23957829 -23.988737 63.6363567 -29.5625 69.9375 C-30.29855469 70.78441406 -31.03460938 71.63132812 -31.79296875 72.50390625 C-36.14641255 77.44415304 -40.68945351 82.18823219 -45.3125 86.875 C-45.85567871 87.43123047 -46.39885742 87.98746094 -46.95849609 88.56054688 C-49.93207156 91.54052106 -52.73289356 94.07146087 -56.5625 95.9375 C-60.51210942 95.9375 -62.0491607 95.39818912 -65 92.75 C-66.5625 89.9375 -66.5625 89.9375 -66.5390625 87.12890625 C-65.25074532 82.91868572 -62.75621043 80.81744206 -59.5 78.0625 C-58.30505048 77.00496643 -57.11103753 75.94637364 -55.91796875 74.88671875 C-55.33837402 74.37931152 -54.7587793 73.8719043 -54.16162109 73.34912109 C-47.19016846 67.19508459 -41.27018055 60.25770312 -35.5625 52.9375 C-35.08731934 52.3280957 -34.61213867 51.71869141 -34.12255859 51.09082031 C-24.22136728 38.31200564 -15.91811498 25.99485262 -10.35058594 10.73925781 C-6.30895098 -0.11068335 -6.30895098 -0.11068335 0 0 Z " fill="#000000" transform="translate(301.5625,412.0625)"/>
<path d="M0 0 C1.87109375 2.00390625 1.87109375 2.00390625 3.4375 4.5625 C8.50072759 12.32389492 13.03715113 18.77473242 22 22 C22.928125 22.33644531 22.928125 22.33644531 23.875 22.6796875 C40.78149449 27.50068007 60.88372631 23.02197746 77.30078125 18.2578125 C80.79150813 17.92440009 82.23042592 18.95100537 85 21 C86.84710505 22.84710505 86.34739293 25.42527454 86.5234375 27.89453125 C85.67010704 31.32695751 83.99353138 32.17394586 81 34 C77.59370253 35.15145033 74.13702967 35.92899915 70.625 36.6875 C69.70460938 36.89955078 68.78421875 37.11160156 67.8359375 37.33007812 C58.7515237 39.38704896 50.11944616 40.20554891 40.8125 40.25 C39.75224609 40.270625 38.69199219 40.29125 37.59960938 40.3125 C23.02456498 40.38355445 10.42677805 36.47318002 -0.25 26.3125 C-11.65168973 14.23690848 -11.65168973 14.23690848 -12.26171875 6.81640625 C-11.95948571 3.56401782 -11.29166764 2.29166764 -9 0 C-5.41249754 -1.19583415 -3.62339491 -1.01455058 0 0 Z " fill="#000000" transform="translate(335,230)"/>
<path d="M0 0 C2.9375 2.1875 2.9375 2.1875 5 5 C5.71846773 11.2694863 3.29460663 14.0779748 -0.3984375 18.8671875 C-8.37765091 28.61817309 -16.94650476 37.37024327 -27 45 C-27.95519531 45.74765625 -28.91039062 46.4953125 -29.89453125 47.265625 C-35.05232487 51.24043843 -40.32335257 54.9998931 -45.8125 58.5 C-47.33810547 59.47453125 -47.33810547 59.47453125 -48.89453125 60.46875 C-52.37828966 62.18652773 -55.127954 62.8043502 -59 63 C-64.46835443 60.06329114 -64.46835443 60.06329114 -66 57 C-66.36289976 53.15326253 -66.53429771 50.83171467 -64.4140625 47.53125 C-61.61317345 44.59439547 -58.57534148 42.75256795 -55.0625 40.8125 C-47.5161291 36.46574607 -40.73904178 31.50125859 -34 26 C-33.22785156 25.3709375 -32.45570313 24.741875 -31.66015625 24.09375 C-24.38526278 17.94988604 -18.63769056 10.65773544 -12.89453125 3.1015625 C-8.90187395 -1.3274058 -5.708957 -1.5023571 0 0 Z " fill="#000000" transform="translate(205,389)"/>
<path d="M0 0 C3.3115799 2.46607014 4.78019091 3.85210809 5.5625 7.9375 C4.29341091 14.84698502 -1.42217481 20.0541665 -5.78125 25.31640625 C-7.23003734 27.06872474 -8.65584123 28.84037451 -10.0546875 30.6328125 C-12.99858933 34.21515087 -16.45328347 37.0320879 -20 40 C-20.7425 40.64195312 -21.485 41.28390625 -22.25 41.9453125 C-29.02786136 47.63068963 -36.2789644 51.74824535 -44 56 C-44.86882812 56.56203125 -45.73765625 57.1240625 -46.6328125 57.703125 C-50.38480776 59.75867356 -53.83696469 59.68476095 -58 59 C-61.40066339 56.87458538 -61.88251741 55.4307695 -62.9375 51.5625 C-63.01175079 47.33020482 -62.61091829 46.29074229 -60 43 C-57.10970229 40.98687799 -54.03836871 39.35162694 -50.9375 37.6875 C-43.74011595 33.66856709 -37.10449668 29.59672894 -31 24 C-30.27167969 23.34 -29.54335937 22.68 -28.79296875 22 C-23.54514525 17.00032227 -19.11109849 11.50778336 -14.80493164 5.69677734 C-10.2597186 -0.32720086 -7.4889401 -1.97077371 0 0 Z " fill="#000000" transform="translate(186,369)"/>
<path d="M0 0 C2.93942775 2.08854077 3.82758806 3.35389959 4.7578125 6.83984375 C5.25412124 13.31587228 0.34107907 18.22513071 -3.64697266 22.95214844 C-15.54936309 36.57231036 -29.56079263 48.1569666 -47 54 C-50.82875874 53.86565759 -53.19714818 53.54931967 -56.375 51.375 C-58.61465514 48.10165788 -59.06842425 45.96860664 -59 42 C-55.47019392 36.78737939 -51.85123387 34.52912617 -46.1875 32 C-40.24706978 29.1891132 -35.02545477 26.28360193 -30 22 C-29.45859375 21.60039062 -28.9171875 21.20078125 -28.359375 20.7890625 C-23.34409447 16.9221406 -19.72366126 12.0033223 -15.99487305 6.9375 C-11.44543926 0.87928753 -7.88919505 -2.15159865 0 0 Z " fill="#000000" transform="translate(168,350)"/>
<path d="M0 0 C2.44834628 2.44834628 3.7935514 4.44516938 5 7.6875 C6.25650855 10.59317603 7.13043672 10.80434863 10 12 C10.86625 12.639375 11.7325 13.27875 12.625 13.9375 C22.9692553 20.25898935 36.55039972 20.84519911 48.2734375 18.28515625 C50.81708594 17.49398262 50.81708594 17.49398262 52.9921875 16.55859375 C55.63685962 15.82281921 57.38632167 16.24284605 60 17 C62.3125 18.625 62.3125 18.625 64 21 C64.5 24.5 64.5 24.5 64 28 C59.51811392 33.61026681 52.842216 34.96276101 46 36 C29.81475247 37.41821384 13.62728336 36.13772943 0.33203125 25.95703125 C-5.82101619 20.67649867 -11.39378169 15.54663729 -12.5 7.25 C-11.97611931 3.8447755 -11.46165377 2.37048141 -9 0 C-5.39297148 -1.20234284 -3.64185324 -1.0405295 0 0 Z " fill="#000000" transform="translate(354,210)"/>
<path d="M0 0 C3.62089136 1.88588092 4.07464976 3.55390364 5.36181641 7.30834961 C6.37519143 10.88772664 6.84339571 14.42716879 7.1875 18.125 C7.26572998 18.9394458 7.34395996 19.7538916 7.42456055 20.59301758 C9.12123237 40.19633048 12.24492332 76.81306128 -0.44140625 93.453125 C-3.00560614 95.27826978 -4.95975918 94.99682012 -8 94.5625 C-10.4375 93.125 -10.4375 93.125 -12 90.5625 C-11.66965975 85.75840891 -10.94365523 81.13322553 -10.02734375 76.41015625 C-5.87847257 54.83640227 -4.78773664 31.34452103 -8.55126953 9.58422852 C-9.03874193 6.55728314 -9.19717366 4.9348713 -7.73828125 2.1796875 C-5.12317918 -0.25323892 -3.50557466 -0.51122964 0 0 Z " fill="#000000" transform="translate(374,350.4375)"/>
<path d="M0 0 C15.76225401 6.13645004 36.85480894 4.8954111 53.0625 0.4375 C57.28002665 -0.61688166 60.23032168 -0.9429208 64.5625 -0.4375 C67.125 1.625 67.125 1.625 68.5625 4.5625 C68.5625 10.50490838 68.5625 10.50490838 66.0703125 13.140625 C62.38043948 15.23270254 58.57562029 15.88626395 54.4375 16.6875 C53.14610107 16.94515137 53.14610107 16.94515137 51.82861328 17.20800781 C33.11032656 20.85880034 5.8898011 23.35502157 -10.9375 12.5 C-13.4375 10.5625 -13.4375 10.5625 -15.4375 8.5625 C-15.80349043 5.19538809 -15.81174895 3.22189101 -14.125 0.25 C-9.86439165 -4.01060835 -4.97386058 -2.07997806 0 0 Z " fill="#000000" transform="translate(343.4375,326.4375)"/>
<path d="M0 0 C4.49333689 2.14898721 4.49333689 2.14898721 5.875 4.375 C6.62333611 7.4307058 6.81480156 8.47410965 5.875 11.375 C3.18851917 15.01627865 0.03920958 18.14984256 -3.125 21.375 C-4.30162712 22.74148627 -5.46924606 24.1158147 -6.625 25.5 C-13.45130927 33.2813663 -21.1983495 39.18039547 -30.125 44.375 C-30.99640625 44.88546875 -31.8678125 45.3959375 -32.765625 45.921875 C-38.10520084 48.83734893 -42.03478395 50.42503725 -48.125 49.375 C-50.6875 47.3125 -50.6875 47.3125 -52.125 44.375 C-52.1875 40.8125 -52.1875 40.8125 -51.125 37.375 C-47.8398194 34.33940026 -44.48911454 32.46418417 -40.4375 30.625 C-28.78174514 24.92567869 -19.69717244 15.81405217 -11.375 6 C-5.2427598 -1.04855196 -5.2427598 -1.04855196 0 0 Z " fill="#000000" transform="translate(151.125,328.625)"/>
<path d="M0 0 C2.1796875 1.59765625 2.1796875 1.59765625 4 4 C4.1015625 7.2421875 4.1015625 7.2421875 3.625 10.875 C2.81912382 17.1990792 3.36741086 21.23715685 6.625 26.75 C12.30407657 32.1301778 20.22780745 31.22328482 27.58203125 31.15234375 C30.49700624 31.02241915 33.24949029 30.71103214 36.125 30.25 C40 30 40 30 42.5625 31.5625 C44.42736134 34.72465618 44.67722852 36.38811454 44 40 C39.77031826 44.3471729 36.00698533 45.10614038 30.1484375 45.203125 C28.22401206 45.22436004 26.29951544 45.23977681 24.375 45.25 C23.42753906 45.270625 22.48007812 45.29125 21.50390625 45.3125 C11.2661469 45.36852057 3.40818686 43.4341648 -4.0859375 36.2578125 C-9.71581601 29.61685377 -11.56756902 21.54264138 -11 13 C-9.92957975 3.85400416 -9.92957975 3.85400416 -7.078125 1.234375 C-4.42832452 -0.33956664 -3.03429854 -0.53100224 0 0 Z " fill="#000000" transform="translate(372,177)"/>
<path d="M0 0 C2.4375 1.5625 2.4375 1.5625 4 4 C4.73736757 10.30684601 2.887497 13.99692099 -0.3125 19.1875 C-0.98865356 20.30016235 -0.98865356 20.30016235 -1.6784668 21.43530273 C-10.40244526 35.36627887 -21.15511073 44.0324127 -36 51 C-39.0625 51.5 -39.0625 51.5 -42 51 C-45.35694984 48.51877621 -46.78441871 47.05634831 -47.625 42.9375 C-46.78448534 38.9870811 -45.26206679 38.32125507 -42 36 C-39.08379333 34.30225468 -36.14866805 32.67487752 -33.171875 31.08789062 C-29.12721695 28.85893233 -26.12198671 26.38849777 -23 23 C-22.23042969 22.2265625 -22.23042969 22.2265625 -21.4453125 21.4375 C-17.16996089 16.78267932 -14.45525469 11.50923916 -11.61328125 5.890625 C-8.4995292 0.3115051 -6.54099789 -0.80328044 0 0 Z " fill="#000000" transform="translate(141,301)"/>
<path d="M0 0 C3.5378633 1.91892878 5.83365267 4.63128541 8.421875 7.63671875 C17.06703334 17.2738147 26.00911446 22.92547284 37.671875 28.44921875 C44.97944188 31.96479761 44.97944188 31.96479761 46.671875 35.44921875 C46.54177896 38.63657179 46.24257191 40.66111349 44.359375 43.26171875 C42.32986682 44.68989118 41.14640241 45.12096511 38.671875 45.44921875 C20.27789626 41.06056411 2.49083044 28.25373123 -8.2890625 12.80078125 C-9.59954775 9.83494621 -9.63990596 7.65924528 -9.328125 4.44921875 C-6.72619886 1.12951989 -4.40113082 -1.04120712 0 0 Z " fill="#000000" transform="translate(312.328125,248.55078125)"/>
<path d="M0 0 C2.31282587 3.46923881 2.42478586 4.92205575 2 9 C-2.96098329 15.77267343 -16.54993828 16.44627079 -24.4375 17.75 C-41.77377415 20.3833581 -41.77377415 20.3833581 -49 19 C-51.91015625 16.6640625 -51.91015625 16.6640625 -54 14 C-54.0680114 10.59943024 -53.8001939 8.86127741 -51.46484375 6.34765625 C-47.91375612 4.40609487 -44.4483732 4.59775333 -40.5 4.5625 C-27.58167162 4.18907957 -12.31812632 -2.6875912 0 0 Z " fill="#000000" transform="translate(419,276)"/>
<path d="M0 0 C2.97342761 0.60993387 3.62175949 1.08389368 5.4375 3.5 C6.16144235 6.02337106 6.69800557 8.36264742 7.125 10.9375 C7.31280029 12.05608398 7.31280029 12.05608398 7.50439453 13.19726562 C9.36681341 25.45122168 9.1880116 37.78654652 7.125 50 C7.00753418 50.69996094 6.89006836 51.39992188 6.76904297 52.12109375 C6.02904921 55.93919695 5.07034075 58.60903761 2.4375 61.5 C-0.9375 61.1875 -0.9375 61.1875 -4.5625 60.5 C-7.1561992 56.6094512 -6.45156645 55.29666704 -5.6875 50.75 C-3.62691553 36.78218101 -3.11785634 21.80327705 -6.515625 8.0234375 C-6.5625 5.5 -6.5625 5.5 -4.76953125 2.6953125 C-2.5625 0.5 -2.5625 0.5 0 0 Z " fill="#000000" transform="translate(390.5625,350.5)"/>
<path d="M0 0 C2.5625 0.3125 2.5625 0.3125 4.234375 1.50390625 C6.54182152 4.64610549 5.46581896 7.81719222 5.015625 11.51171875 C3.59744176 20.27755824 3.59744176 20.27755824 0.5625 23.3125 C-2.20855746 23.66776378 -3.77768585 23.76882007 -6.109375 22.15625 C-8.88317138 18.30556796 -7.11861875 12.75738703 -6.4375 8.3125 C-4.43475652 0.56855853 -4.43475652 0.56855853 0 0 Z " fill="#000000" transform="translate(406.4375,161.6875)"/>
<path d="M0 0 C1.49243566 5.75653756 2.60542726 11.04663195 2 17 C0.375 19.5625 0.375 19.5625 -2 21 C-5.1875 20.875 -5.1875 20.875 -8 20 C-9.56480359 16.87039282 -9.50188195 13.50286858 -9.75 10.0625 C-9.81832031 9.33353516 -9.88664062 8.60457031 -9.95703125 7.85351562 C-10.33667984 2.54330267 -10.33667984 2.54330267 -8.74609375 -0.0234375 C-5.82246809 -1.6585749 -3.15176026 -0.65413892 0 0 Z " fill="#000000" transform="translate(410,349)"/>
</svg>
