<?xml version="1.0" standalone="no"?>
<!DOCTYPE svg PUBLIC "-//W3C//DTD SVG 20010904//EN"
 "http://www.w3.org/TR/2001/REC-SVG-20010904/DTD/svg10.dtd">
<svg version="1.0" xmlns="http://www.w3.org/2000/svg"
 width="1024.000000pt" height="1536.000000pt" viewBox="0 0 1024.000000 1536.000000"
 preserveAspectRatio="xMidYMid meet">

<g transform="translate(0.000000,1536.000000) scale(0.100000,-0.100000)"
fill="#ffffff" stroke="none">
<path d="M3365 12094 c-16 -2 -86 -9 -155 -15 -258 -22 -587 -107 -770 -199
-102 -51 -152 -85 -231 -155 -72 -64 -128 -85 -389 -145 -96 -22 -211 -52
-255 -66 -227 -74 -439 -180 -596 -299 -99 -74 -248 -226 -306 -310 -53 -78
-117 -206 -137 -274 -21 -71 -21 -85 2 -76 9 4 69 18 132 31 144 29 284 31
515 5 340 -38 450 -44 753 -39 l294 6 87 -43 c176 -89 308 -210 374 -344 41
-83 42 -87 41 -185 0 -88 -5 -114 -36 -206 -110 -322 -335 -669 -493 -758 -19
-11 -18 -11 8 -12 65 0 258 81 314 132 19 18 18 11 -12 -58 -92 -215 -143
-458 -152 -724 -9 -283 24 -519 111 -797 74 -232 155 -413 248 -553 47 -70
102 -132 93 -105 -17 53 -35 138 -45 210 -15 114 -23 521 -12 575 9 39 10 31
11 -65 2 -225 50 -480 115 -618 54 -113 131 -210 91 -114 -20 48 -45 207 -45
287 l0 65 33 -80 c115 -277 327 -595 651 -975 286 -334 413 -490 458 -561 9
-14 32 -74 51 -135 189 -581 235 -767 253 -1003 6 -85 8 -92 20 -70 7 13 13
34 14 46 0 12 4 24 9 27 4 3 21 -71 37 -164 16 -92 31 -167 35 -165 3 3 20 34
37 70 18 36 33 65 36 65 9 0 -37 -176 -82 -310 -145 -429 -272 -667 -401 -749
-119 -77 -227 -94 -427 -67 -139 18 -201 12 -270 -29 -45 -26 -100 -88 -127
-141 -13 -25 -24 -32 -58 -37 -61 -8 -162 -61 -204 -108 -54 -60 -98 -161
-103 -234 l-4 -60 40 60 c50 76 82 106 156 144 74 39 84 39 78 1 -10 -69 58
-108 152 -88 60 13 148 51 341 146 77 38 172 79 210 92 231 74 282 96 353 148
17 13 32 22 32 19 0 -4 -24 -24 -54 -46 -58 -43 -125 -74 -255 -116 -97 -32
-154 -73 -194 -136 -53 -86 -67 -181 -46 -309 10 -65 29 -105 29 -62 0 70 111
286 160 312 15 8 19 5 25 -18 10 -42 24 -52 69 -52 56 1 107 26 197 97 100 80
120 89 248 118 59 13 152 43 206 65 83 36 104 41 141 36 24 -3 63 -9 87 -12
37 -5 48 -2 94 30 38 26 63 36 90 36 54 0 132 -40 177 -90 l38 -42 -7 33 c-20
98 -92 200 -162 231 -30 13 -62 19 -102 17 -45 -2 -66 3 -93 19 -40 25 -85 28
-167 11 -45 -9 -66 -9 -105 2 -130 37 -122 158 31 499 104 232 169 382 183
425 12 37 14 38 23 17 6 -12 13 -22 17 -22 17 0 52 109 65 203 3 26 9 47 13
47 4 0 25 -50 46 -111 21 -60 42 -107 46 -102 5 4 21 46 36 93 25 75 28 100
29 217 l0 132 20 -34 c11 -19 33 -58 50 -87 26 -48 30 -51 33 -28 10 63 -25
219 -83 365 -4 11 22 -9 59 -45 74 -73 77 -70 47 45 -29 112 -97 273 -143 338
-11 15 -17 27 -14 27 2 0 69 -20 148 -45 150 -48 326 -95 353 -95 13 0 15 8 9
53 -4 28 -4 50 -1 47 10 -9 176 -683 198 -799 12 -69 19 -149 19 -234 0 -84 3
-126 10 -122 6 4 23 32 39 62 l28 56 17 -94 c30 -159 35 -173 53 -157 14 11
15 10 10 -7 -3 -11 -11 -54 -17 -95 -51 -325 -193 -702 -315 -838 -51 -57
-113 -87 -341 -169 l-159 -57 -129 2 c-106 2 -136 -1 -170 -16 -76 -34 -145
-137 -165 -247 -14 -74 -14 -138 -1 -130 6 3 10 14 10 23 0 35 57 126 108 173
30 28 56 48 58 47 1 -2 -3 -23 -9 -47 -11 -40 -10 -44 12 -62 27 -22 73 -24
206 -8 260 31 427 108 588 271 50 50 72 68 60 48 -30 -52 -136 -145 -262 -230
-164 -109 -206 -165 -237 -311 -11 -52 -14 -96 -9 -148 8 -80 14 -81 39 -5 21
64 60 126 117 184 l44 45 5 -30 c4 -23 11 -31 32 -33 39 -5 81 21 171 105 98
92 421 309 474 319 27 5 65 -2 152 -27 95 -28 133 -34 208 -34 105 0 140 17
158 74 9 31 12 33 47 27 98 -16 244 -123 282 -207 l15 -34 -5 40 c-15 110 -57
199 -131 276 -91 96 -187 123 -300 85 -50 -17 -54 -17 -117 3 -37 11 -102 25
-145 30 -106 14 -151 36 -175 85 -32 65 -17 143 117 641 32 116 62 230 69 255
11 40 13 42 16 18 5 -38 16 -35 47 10 41 60 82 204 96 339 l13 120 24 -51 c14
-28 39 -87 57 -130 l32 -79 11 34 c42 133 52 279 27 419 -8 47 -15 87 -15 89
0 5 108 -134 150 -193 l35 -48 6 48 c15 118 -23 359 -72 456 -22 42 -21 42 68
-39 183 -168 209 -201 311 -402 235 -465 445 -781 689 -1041 120 -128 308
-298 439 -397 120 -90 341 -229 350 -220 3 2 -6 29 -20 58 -14 30 -55 119 -91
199 -55 122 -197 390 -301 570 l-26 45 29 -31 c15 -18 62 -73 103 -125 164
-203 477 -498 725 -683 346 -258 610 -425 823 -520 111 -50 112 -50 112 -37 0
29 -387 509 -883 1098 -42 49 -25 41 52 -25 231 -199 661 -448 1031 -596 63
-25 118 -46 123 -46 4 0 -9 22 -30 49 -183 233 -270 342 -462 576 -475 577
-559 681 -642 796 -83 113 -259 382 -259 396 0 4 84 -77 188 -178 167 -165
296 -281 447 -405 61 -50 384 -294 390 -294 2 0 -22 44 -53 99 -31 54 -167
289 -301 522 -445 775 -623 1082 -736 1271 -107 178 -111 186 -76 164 168
-105 605 -306 896 -411 153 -55 153 -57 0 99 -255 259 -520 604 -870 1133
-263 397 -509 773 -514 785 -2 5 18 -7 44 -26 72 -55 173 -113 284 -162 56
-24 102 -44 104 -44 1 0 -72 75 -163 168 -299 302 -471 531 -807 1076 -230
373 -377 561 -634 811 -336 327 -649 524 -1158 731 l-193 79 83 11 c81 11 136
23 208 46 33 10 33 11 -95 59 -252 97 -433 215 -603 396 -55 59 -99 109 -97
111 3 2 28 -15 57 -38 91 -72 223 -129 379 -164 61 -13 64 -13 42 2 -79 57
-248 200 -311 263 -40 41 -135 153 -211 249 -76 96 -156 194 -178 218 -22 23
-36 42 -32 42 4 0 14 -8 21 -17 19 -23 211 -149 282 -184 l58 -30 -63 87 c-84
116 -190 236 -274 310 -90 79 -213 174 -227 174 -6 0 -8 2 -5 5 2 3 36 -2 74
-10 39 -8 119 -14 184 -14 l115 0 -115 38 c-63 21 -153 54 -200 75 -89 39
-272 145 -351 202 -87 63 -306 191 -381 222 -201 84 -467 127 -653 106z m-285
-462 c39 -29 51 -61 47 -120 -3 -44 -9 -59 -36 -85 -28 -28 -38 -32 -86 -32
-48 0 -58 4 -86 32 -62 61 -45 177 31 216 41 21 92 17 130 -11z m-864 -87 c20
-8 70 -47 112 -85 41 -39 88 -78 105 -86 50 -26 23 -26 -34 0 -91 42 -222 59
-389 52 -80 -4 -163 -9 -185 -12 -22 -4 -38 -4 -35 -1 10 11 183 38 298 46
118 9 158 23 106 38 -38 10 -144 10 -219 0 -100 -15 -60 3 110 48 67 18 89 18
131 0z m368 -534 c119 -10 140 -20 138 -69 0 -17 -9 -47 -20 -69 -24 -46 -124
-144 -172 -167 l-35 -17 30 22 c84 63 165 178 151 214 -10 27 -48 33 -242 40
-408 15 -896 -33 -1252 -124 -212 -54 -485 -166 -578 -237 -36 -28 -53 -31
-33 -7 24 29 150 105 264 159 247 117 665 217 1020 244 77 6 156 12 175 14 75
7 451 5 554 -3z m1056 -606 c68 -19 133 -35 145 -36 11 0 29 -5 40 -10 27 -12
-59 -2 -150 18 -90 20 -223 68 -255 93 -21 17 -16 16 36 -5 33 -13 116 -40
184 -60z m485 -630 c14 -75 20 -164 16 -260 l-2 -60 -22 39 c-12 21 -46 70
-75 108 -29 39 -51 72 -49 74 7 8 95 -97 114 -136 l18 -35 3 75 c2 65 -23 253
-42 315 -3 11 1 4 10 -15 9 -19 22 -66 29 -105z m1375 -135 c-8 -5 -26 -10
-40 -10 -49 0 -176 -42 -275 -90 -168 -81 -277 -199 -332 -357 -24 -70 -27
-92 -27 -208 1 -108 5 -147 27 -228 81 -303 304 -600 592 -788 98 -64 104 -80
9 -23 -303 181 -543 477 -628 775 -138 483 82 834 578 924 92 17 116 18 96 5z
m-1543 -42 c-3 -7 -5 -2 -5 12 0 14 2 19 5 13 2 -7 2 -19 0 -25z m10 -140 c-5
-127 -28 -236 -70 -332 -17 -41 -22 -46 -28 -30 -40 101 -98 225 -135 286 -24
40 -33 60 -19 43 43 -52 96 -144 130 -226 l32 -79 27 88 c32 108 42 162 51
280 4 50 10 92 13 92 2 0 2 -55 -1 -122z m-1188 -54 c-35 -91 -61 -254 -66
-423 -5 -154 -4 -172 10 -165 32 19 217 187 259 237 25 28 62 78 83 110 42 64
54 74 29 25 -29 -57 -110 -161 -176 -224 -75 -73 -196 -174 -207 -174 -24 0
-27 235 -6 368 15 90 72 288 81 279 3 -2 0 -17 -7 -33z m55 -211 c-20 -43 -53
-125 -75 -183 -21 -58 -38 -96 -38 -85 -1 40 126 345 144 345 2 0 -12 -35 -31
-77z m66 -462 c7 -99 21 -206 36 -271 13 -60 24 -112 25 -117 1 -18 59 196 65
242 10 76 21 84 16 11 -11 -172 79 -485 180 -628 28 -40 38 -35 38 21 0 60 24
200 52 304 25 95 37 95 14 0 -24 -102 -56 -299 -56 -351 l-1 -47 -42 47 c-96
107 -165 273 -189 452 l-13 98 -17 -58 c-10 -33 -21 -83 -24 -112 -10 -76 -8
-79 -70 148 -21 78 -27 125 -31 265 -3 94 -3 168 0 164 4 -3 11 -78 17 -168z
m1368 -327 c17 -33 51 -92 77 -130 l46 -69 -45 50 c-53 57 -105 152 -135 244
-28 87 -26 112 3 31 13 -36 37 -92 54 -126z m-166 -55 c83 -62 182 -117 253
-139 37 -11 69 -30 52 -30 -4 0 -35 9 -68 20 -120 41 -249 127 -356 239 -35
36 -63 69 -63 74 0 5 23 -17 51 -47 28 -31 87 -83 131 -117z m-377 -4 c132
-202 385 -404 580 -461 33 -9 55 -19 49 -21 -18 -6 -149 42 -217 81 -188 105
-357 273 -462 461 -40 71 -18 45 50 -60z m1974 -109 c120 -225 265 -420 429
-576 63 -61 148 -133 189 -160 81 -54 86 -62 20 -29 -239 122 -539 484 -680
822 -27 62 -11 42 42 -57z m-3153 -1 c-12 -32 -38 -239 -46 -371 l-8 -139 3
175 c3 109 10 201 20 245 19 86 25 105 32 105 3 0 3 -7 -1 -15z m1559 -82 c44
-81 81 -129 149 -200 28 -29 45 -53 40 -53 -32 0 -172 183 -217 283 -26 59
-12 43 28 -30z m-396 -274 c89 -88 196 -170 281 -214 l34 -18 -33 39 c-82 99
-127 166 -166 249 -24 50 -46 101 -49 115 -3 14 12 -12 33 -57 51 -105 134
-232 206 -310 31 -35 53 -63 48 -63 -18 1 -150 73 -211 117 -36 26 -98 77
-137 114 -68 65 -177 205 -191 244 -3 11 15 -11 41 -50 27 -38 91 -113 144
-166z m2671 -161 c171 -277 435 -546 664 -678 84 -48 67 -48 -21 0 -209 113
-420 312 -567 535 -73 110 -140 225 -132 225 3 0 28 -37 56 -82z m902 -602
c74 -124 177 -271 273 -391 186 -234 521 -550 788 -744 93 -68 114 -88 45 -45
-80 51 -224 161 -353 271 -292 249 -558 555 -737 850 -73 120 -238 437 -238
457 0 6 37 -58 81 -143 45 -85 108 -200 141 -255z m-746 -148 c260 -529 653
-1020 1072 -1338 97 -73 114 -93 34 -38 -292 198 -599 523 -849 898 -138 208
-231 372 -312 559 -40 91 -64 163 -34 101 9 -19 49 -101 89 -182z m1115 5 c13
-16 12 -17 -3 -4 -17 13 -22 21 -14 21 2 0 10 -8 17 -17z m115 -140 c231 -278
740 -741 1042 -947 39 -27 70 -51 68 -53 -5 -5 -140 87 -256 174 -340 254
-651 550 -876 833 -88 112 -87 110 -81 110 3 0 49 -53 103 -117z m-307 -907
c70 -115 189 -265 309 -389 26 -27 39 -45 28 -41 -29 11 -241 259 -312 366
-59 89 -184 323 -184 344 0 5 24 -36 53 -91 29 -56 77 -140 106 -189z m415
-220 c213 -301 551 -680 845 -949 230 -211 223 -205 166 -161 -310 238 -814
785 -1040 1129 -120 184 -112 178 29 -19z m-904 -876 c213 -212 468 -394 677
-486 86 -37 89 -46 5 -14 -155 59 -326 167 -513 324 -128 106 -307 289 -374
381 -34 47 -33 46 16 -10 29 -33 114 -121 189 -195z m538 -36 c147 -200 428
-489 632 -653 101 -81 266 -195 350 -242 22 -12 38 -24 36 -26 -13 -13 -289
166 -426 276 -231 186 -555 539 -654 713 -27 47 -7 25 62 -68z m801 -317 c119
-176 354 -439 508 -568 108 -89 129 -109 83 -79 -182 122 -466 429 -614 663
-52 82 -36 70 23 -16z m541 -434 c25 -34 64 -91 88 -125 61 -89 -2 -15 -86
100 -54 75 -253 451 -252 478 0 5 47 -81 103 -191 57 -110 123 -228 147 -262z
m-5325 -1008 c22 -8 49 -15 59 -15 11 0 16 -3 12 -7 -8 -8 -297 -32 -305 -26
-10 7 28 35 65 48 50 18 118 18 169 0z"/>
</g>
</svg>
