<?xml version="1.0" encoding="UTF-8"?>
<svg version="1.1" xmlns="http://www.w3.org/2000/svg" width="6000" height="4200">
<path d="M0 0 C2.55981382 0.00564162 5.11962102 0.00846141 7.67943954 0.0110817 C31.72408931 0.04685789 55.63266148 0.34748163 79.54903793 3.06805801 C81.87991409 3.33020878 84.21204988 3.57733116 86.54482651 3.82196426 C126.79045167 8.08317165 166.44050635 15.89234543 205.77187729 25.31805801 C206.80937119 25.56558823 206.80937119 25.56558823 207.86782455 25.81811905 C256.09399736 37.34989432 302.81919996 53.84248676 348.77187729 72.31805801 C349.42456589 72.58038223 350.07725449 72.84270645 350.74972153 73.11297989 C389.74297113 88.82541394 428.55025343 107.33488687 464.82656479 128.59296036 C467.52868109 130.17561568 470.23734202 131.7465301 472.94831467 133.3139534 C497.85617623 147.72253513 522.10707396 162.93185483 545.77187729 179.31805801 C546.56674545 179.86558731 547.36161362 180.41311661 548.1805687 180.9772377 C569.09391373 195.40119262 589.23505663 211.08323521 608.77187729 227.31805801 C609.28073471 227.74054825 609.78959213 228.16303848 610.31386948 228.59833145 C617.40909809 234.50311441 624.31158741 240.57400921 631.08437729 246.84540176 C633.22292604 248.81299095 635.38152461 250.73629461 637.58437729 252.63055801 C649.27587281 262.84003298 660.29058837 273.73321554 671.27187729 284.69305801 C671.88583359 285.30442612 672.49978989 285.91579422 673.13235092 286.54568863 C684.91411301 298.28830931 684.91411301 298.28830931 690.22793198 304.52899551 C693.0832925 307.83767387 696.13486205 310.9651513 699.14687729 314.13055801 C704.17089112 319.45024671 708.9880103 324.84462777 713.55312729 330.56805801 C716.12259439 333.75274964 718.78388012 336.84750952 721.45937729 339.94305801 C733.02629915 353.38153603 744.14563025 367.12355303 754.77187729 381.31805801 C755.61468246 382.44316788 755.61468246 382.44316788 756.47451401 383.59100723 C779.22997466 414.04930366 800.44818949 445.57632749 819.77187729 478.31805801 C820.41463608 479.40538223 821.05739487 480.49270645 821.7196312 481.61297989 C831.19124214 497.69274763 840.14928305 514.03044774 848.83761215 530.54455948 C849.76612951 532.30714712 850.6984357 534.06773713 851.63076401 535.82831192 C861.96716167 555.3725608 871.54863472 575.22618911 880.77187729 595.31805801 C881.25543686 596.36719376 881.73899643 597.4163295 882.23720932 598.49725723 C917.18763648 674.74685729 943.32859018 755.07331818 963.77187729 836.31805801 C963.98308212 837.15474014 964.19428696 837.99142227 964.41189194 838.8534584 C984.38390452 918.10160252 996.96867538 999.01340296 1004.77187729 1080.31805801 C1004.91012924 1081.75550369 1004.91012924 1081.75550369 1005.05117416 1083.22198868 C1006.51586225 1098.57199777 1007.71966038 1113.93454501 1008.77187729 1129.31805801 C1008.84813339 1130.40892715 1008.9243895 1131.4997963 1009.00295639 1132.62372208 C1014.4676694 1211.57452032 1014.2398078 1291.84200178 1009.00295639 1370.7963295 C1008.76530108 1374.41828186 1008.54003903 1378.0408334 1008.31777573 1381.66376114 C1003.42303764 1461.0224278 993.81146972 1539.81047229 981.10335922 1618.26961136 C980.78561811 1620.23314435 980.46938736 1622.19692157 980.15322495 1624.16070938 C963.99267226 1724.35147307 942.58459531 1823.98970282 723.41396713 2536.58856583 C721.877048 2540.07629816 720.34972403 2543.56818705 718.82265854 2547.06024551 C713.41831903 2559.37175188 707.82944992 2571.58836594 702.09218979 2583.74774551 C701.73005198 2584.51545399 701.36791416 2585.28316246 700.99480247 2586.07413483 C692.87269221 2603.26713191 684.43587848 2620.2987957 675.91323471 2637.29608536 C673.84966474 2641.41170559 671.79351811 2645.53098647 669.73912716 2649.65119457 C661.41152378 2666.34552426 652.9968112 2682.94817859 643.91601181 2699.24884415 C642.33417188 2702.10966607 640.80984267 2704.99730073 639.29140854 2707.89227676 C629.29798593 2726.85420079 618.50634247 2741.3314492 597.77187729 2749.31805801 C596.91336166 2749.65837051 596.05484604 2749.99868301 595.17031479 2750.34930801 C580.05572255 2755.40310356 562.73454289 2752.90272882 548.64687729 2746.19305801 C542.06841373 2742.74788691 536.92974463 2738.6243532 531.77187729 2733.31805801 C531.13765854 2732.70446426 530.50343979 2732.09087051 529.85000229 2731.45868301 C518.84023635 2720.05919085 514.11816042 2704.01190533 514.36733627 2688.44672012 C515.15532172 2669.97380923 524.07867862 2655.16310807 532.77187729 2639.31805801 C533.51486069 2637.9621254 533.51486069 2637.9621254 534.27285385 2636.5788002 C535.18862051 2634.9097103 536.10479401 2633.24084356 537.02138901 2631.5722084 C537.47530014 2630.74583878 537.92921127 2629.91946915 538.39687729 2629.06805801 C538.87012436 2628.20752823 539.34337143 2627.34699844 539.83095932 2626.460392 C561.57168624 2586.68625272 581.54972833 2545.7556326 599.97549057 2504.34784317 C601.51774629 2500.88287128 603.07405331 2497.42439118 604.63375473 2493.96724319 C639.97071554 2415.60478138 670.22526624 2335.16055223 730.92733383 2149.14087296 C731.76013899 2146.35729229 732.59609037 2143.57467197 733.43252182 2140.79217911 C756.17447992 2065.00956979 775.5634013 1988.10738731 834.89652252 1715.77271271 C835.5692329 1712.3941186 836.24370286 1709.01588027 836.91863632 1705.63772964 C845.0759397 1664.77863605 852.97125677 1623.81978609 858.89687729 1582.56805801 C859.0545256 1581.48492325 859.21217392 1580.40178848 859.37459946 1579.28583145 C872.23777473 1490.84260495 880.71741579 1401.69676122 882.77187729 1312.31805801 C882.81764908 1310.36159348 882.81764908 1310.36159348 882.86434555 1308.3656044 C883.73721359 1270.66471033 884.03087641 1233.01657712 882.77187729 1195.31805801 C882.72290298 1193.82453812 882.72290298 1193.82453812 882.6729393 1192.3008461 C879.50035156 1096.51598323 869.20777506 1001.45484837 757.77187729 625.31805801 C757.2116185 624.15790176 757.2116185 624.15790176 756.64004135 622.97430801 C754.8014716 619.18419396 752.91274634 615.42279836 750.98476791 611.67743301 C750.04999259 609.85906169 749.1199008 608.03828215 748.19179916 606.21649551 C716.98426017 544.96613357 680.18001508 485.5371417 635.29140854 433.27118301 C632.86371593 430.42570144 630.49870669 427.53886518 628.14687729 424.63055801 C624.56787606 420.23004227 620.82395429 416.0197328 617.00234604 411.82977676 C614.77668378 409.32347057 612.67666168 406.74881408 610.58437729 404.13055801 C605.22455579 397.51015132 599.37559049 391.37669602 593.52968979 385.18915176 C591.32416025 382.84148809 589.14662679 380.46910412 586.97134018 378.09344864 C579.91197646 370.38776501 572.73842173 362.9255142 564.79140854 356.12274551 C562.5818356 354.14823353 560.5268478 352.06561211 558.45937729 349.94305801 C554.47993438 345.91616008 550.26264897 342.36157677 545.84609604 338.82587051 C542.31195999 335.94287771 538.88793209 332.94990717 535.45937729 329.94305801 C529.02868228 324.33029872 522.42744011 319.00043387 515.66884995 313.7897377 C513.63380913 312.21094413 511.61425641 310.61367796 509.59609604 309.01337051 C469.95782931 277.68265691 426.32633316 250.98668756 381.77187729 227.31805801 C380.83021713 226.8156459 379.88855698 226.3132338 378.91836166 225.79559708 C303.24802461 185.49576754 220.70724577 155.36072021 83.77187729 130.31805801 C82.96798569 130.21044144 82.16409409 130.10282486 81.33584213 129.99194717 C33.53065256 123.66116593 -18.10438852 122.89061221 -65.99002457 129.0329628 C-68.47078566 129.3489691 -70.95304968 129.65106438 -73.43564224 129.95233536 C-96.85723221 132.81780435 -120.19592298 136.1235757 -143.22812271 141.31805801 C-144.00810623 141.49361221 -144.78808975 141.66916641 -145.59170914 141.85004044 C-217.20038296 158.07180864 -287.09747534 184.57240157 -350.22812271 222.31805801 C-351.17800064 222.88411758 -352.12787857 223.45017715 -353.10654068 224.03339005 C-364.35875895 230.75828408 -375.50216555 237.60920131 -386.31894302 245.01678848 C-388.41294053 246.44402719 -390.51922632 247.85199806 -392.62656021 249.25946426 C-404.86332347 257.47570462 -416.59070688 266.27778166 -428.22812271 275.31805801 C-429.22368179 276.08762833 -429.22368179 276.08762833 -430.23935318 276.87274551 C-444.7817058 288.11831379 -458.88958095 299.8864634 -472.71689224 311.99774551 C-473.9431096 313.06905141 -475.17636834 314.13229397 -476.41171646 315.19305801 C-488.53184998 325.61897932 -499.93879278 336.86247409 -511.21982193 348.17938614 C-513.25138471 350.21638223 -515.28834107 352.24787752 -517.32577896 354.27899551 C-518.64771478 355.60159118 -519.96934088 356.9244965 -521.29062271 358.24774551 C-521.88552505 358.84062363 -522.4804274 359.43350174 -523.09335709 360.04434586 C-526.79889049 363.77031034 -530.30669081 367.62362627 -533.7340126 371.60719681 C-535.43284948 373.55248457 -537.23007692 375.35324568 -539.10312271 377.13055801 C-543.05136241 381.01793852 -546.48578425 385.22279777 -549.95077896 389.54071426 C-552.09302622 392.15330054 -554.31452843 394.64614817 -556.60312271 397.13055801 C-560.56392946 401.48128875 -564.19771554 406.01613698 -567.79672623 410.66424942 C-570.88348216 414.63981743 -574.05064544 418.53384939 -577.27841568 422.39569473 C-585.35814112 432.06942531 -592.84841439 442.10437326 -600.22812271 452.31805801 C-601.34368357 453.85345013 -602.45956484 455.3886095 -603.57577896 456.92352676 C-606.80802158 461.3779626 -610.03105272 465.83828772 -613.22812271 470.31805801 C-613.6410054 470.89509476 -614.05388809 471.4721315 -614.47928238 472.06665421 C-622.43495015 483.19953363 -630.09874181 494.50181526 -637.60312271 505.94305801 C-638.14582809 506.76889389 -638.68853348 507.59472977 -639.24768448 508.44559097 C-647.86524936 521.56850755 -656.24549393 534.79714802 -664.22812271 548.31805801 C-665.10673226 549.79349516 -665.98562782 551.26876202 -666.86484146 552.74383926 C-669.34551224 556.92014015 -671.79201937 561.11563844 -674.22812271 565.31805801 C-674.67832779 566.09230118 -675.12853287 566.86654434 -675.59238052 567.66424942 C-684.13122528 582.37458958 -692.24639288 597.29919542 -700.22812271 612.31805801 C-700.74374771 613.28469376 -701.25937271 614.2513295 -701.79062271 615.24725723 C-729.88261656 668.00204647 -752.64807603 723.38565927 -772.3393898 779.77551651 C-773.283055 782.47521168 -774.23137355 785.17324873 -775.17978287 787.87128067 C-786.23375368 819.38264046 -796.13689292 851.15555933 -805.34653091 883.25201797 C-806.17516822 886.13389047 -807.00985036 889.01392041 -807.84726334 891.89325333 C-833.36512143 979.74003307 -851.21778411 1069.52831972 -862.22812271 1160.31805801 C-862.3559816 1161.36818069 -862.48384048 1162.41830338 -862.61557388 1163.50024796 C-872.01158504 1240.98481761 -877.1489933 1318.88071232 -882.02109146 1396.75555801 C-882.13543313 1398.58077516 -882.13543313 1398.58077516 -882.25208473 1400.44286537 C-883.00518146 1412.46805382 -883.75485998 1424.49341795 -884.48620319 1436.51995087 C-886.92795101 1476.61440369 -889.69572828 1516.69718168 -894.10312271 1556.63055801 C-894.22851425 1557.7791127 -894.35390579 1558.92766739 -894.48309708 1560.11102676 C-904.60865503 1652.57951587 -921.84732046 1743.48356383 -1025.61288834 1909.58514786 C-1027.32333247 1911.42020415 -1029.01875881 1913.26835933 -1030.71249771 1915.11883926 C-1060.00662143 1947.02579043 -1060.00662143 1947.02579043 -1081.62485123 1948.47919083 C-1102.24260443 1948.82799122 -1118.47611442 1946.51980994 -1134.02109146 1931.55243301 C-1135.11357193 1930.44641739 -1135.11357193 1930.44641739 -1136.22812271 1929.31805801 C-1136.86363052 1928.70446426 -1137.49913834 1928.09087051 -1138.15390396 1927.45868301 C-1148.97744833 1916.22715582 -1153.15783082 1901.1143148 -1153.66562271 1885.88055801 C-1153.08290857 1862.45059347 -1140.57814556 1847.58491987 -1124.84555435 1831.98089981 C-1117.8623434 1825.05090875 -1111.18911711 1818.16886042 -1105.22812271 1810.31805801 C-1104.30141795 1809.13156431 -1103.37430616 1807.94538846 -1102.44687271 1806.75946426 C-1042.85109669 1729.78766413 -1027.82026497 1628.4697567 -1015.88437271 1508.29071426 C-1015.78024 1507.06726681 -1015.67610729 1505.84381935 -1015.56881905 1504.58329773 C-1012.49158853 1468.14695222 -1010.27782016 1431.64799571 -1007.96281815 1395.15707779 C-1006.9974745 1379.94203015 -1006.02768288 1364.72727877 -1005.04452896 1349.51337051 C-1004.98794019 1348.63704303 -1004.93135141 1347.76071554 -1004.87304783 1346.85783267 C-1003.11096231 1319.60443732 -1001.16097692 1292.36922692 -999.02890396 1265.14227676 C-998.96638734 1264.34239161 -998.90387072 1263.54250646 -998.83945966 1262.71838236 C-993.5886945 1195.58659171 -985.97963493 1128.80042977 -975.22812271 1062.31805801 C-975.08243851 1061.41708389 -974.9367543 1060.51610977 -974.78665543 1059.5878334 C-967.51597425 1014.84230985 -957.97933983 970.5837795 -947.04318619 926.5997963 C-946.21061571 923.24756853 -945.38261835 919.89423466 -944.55527115 916.54071426 C-921.44681693 823.03385837 -891.8456156 731.02068516 -801.71933365 534.98846817 C-800.04937237 531.99795794 -798.4074687 528.99291356 -796.76718521 525.98602676 C-788.26651414 510.45723294 -779.27253627 495.3000458 -770.00204849 480.22284317 C-768.57432365 477.88495848 -767.16748758 475.5392601 -765.78671646 473.17352676 C-759.2534645 461.98645149 -751.96289444 451.29647045 -744.73755264 440.55054092 C-742.12914642 436.66887629 -739.53997395 432.77505897 -736.96249771 428.87274551 C-729.49516055 417.57492939 -721.88445333 406.42730207 -713.85214615 395.52313614 C-712.15153166 393.21406367 -710.45900656 390.89920426 -708.76718521 388.58368301 C-698.25733168 374.22723762 -687.59570386 360.00986579 -676.22812271 346.31805801 C-674.76897898 344.52705127 -673.31066342 342.73536955 -671.85312271 340.94305801 C-667.64075761 335.79461178 -663.35642653 330.71063379 -659.04843521 325.64227676 C-657.18003679 323.44397109 -655.32108127 321.23825366 -653.47031021 319.02508926 C-647.69072728 312.1251849 -641.74526247 305.41892899 -635.62070084 298.82391739 C-634.18518183 297.27162404 -632.76002371 295.71038724 -631.33749771 294.14618301 C-626.96257077 289.338367 -622.56294123 284.58872003 -617.91684341 280.03924942 C-616.34140148 278.43351491 -614.90368082 276.77907706 -613.45859146 275.05633926 C-608.05124611 268.84252291 -602.15276976 263.09398749 -596.32211685 257.28168106 C-594.29549291 255.26041534 -592.27426724 253.23386228 -590.25351334 251.20672989 C-578.77238871 239.71959179 -578.77238871 239.71959179 -572.87729263 234.71771622 C-570.12286884 232.3800239 -567.4969276 229.90417441 -564.85312271 227.44305801 C-563.72327747 226.39709275 -562.5930657 225.35152328 -561.46249771 224.30633926 C-560.91400162 223.7992543 -560.36550552 223.29216934 -559.80038834 222.76971817 C-553.34342587 216.80805687 -546.76983364 211.08534321 -539.93515396 205.56024551 C-537.3550868 203.42322019 -534.88097787 201.21070056 -532.41562271 198.94305801 C-526.91483899 193.94313058 -521.0920328 189.3993942 -515.21445084 184.85858536 C-513.12269701 183.23629349 -511.04186482 181.60072253 -508.96249771 179.96258926 C-498.57893538 171.7994257 -488.01479578 163.93993183 -477.22812271 156.31805801 C-476.334319 155.68609512 -475.44051529 155.05413223 -474.51962662 154.40301895 C-404.0703375 104.71836958 -327.69516197 65.71514919 -239.39227676 37.01367569 C-237.15074677 36.29318729 -234.91271118 35.56244541 -232.67465591 34.83124161 C-221.07270837 31.06864822 -209.37832201 27.87367375 -197.54062271 24.94305801 C-196.5968074 24.70849899 -195.6529921 24.47393997 -194.68057632 24.2322731 C-151.39453797 13.51630063 -107.6449597 6.29175258 -63.22812271 2.31805801 C-61.68735817 2.17819725 -61.68735817 2.17819725 -60.11546707 2.03551102 C-40.0642752 0.26668506 -20.11332875 -0.04502876 0 0 Z " fill="#FFFFFF" transform="translate(2427.2281227111816,768.681941986084)"/>
<path d="M0 0 C2.86860964 0.2696328 5.73835364 0.52285239 8.60870361 0.77325439 C106.54899232 9.37448973 202.48977488 31.99434209 378.69311523 102.30023193 C380.05028851 102.94659166 381.40776104 103.59232335 382.76550293 104.23748779 C399.84566487 112.35405898 416.71451067 120.67908065 433.23272705 129.89923096 C437.32799939 132.15199632 441.48271974 134.28898876 445.63165283 136.44073486 C453.02693362 140.30540439 460.20444708 144.42451262 467.31182861 148.79620361 C470.18994487 150.55646164 473.08054545 152.29538706 475.97149658 154.03448486 C496.54543372 166.42419157 516.99994203 179.02452218 536.66290283 192.82989502 C538.91784258 194.409979 541.18070569 195.97833258 543.44415283 197.54620361 C566.95245771 213.86518652 589.90300998 231.00219256 612.14825439 249.00714111 C614.33807048 250.77227397 616.54925099 252.51017322 618.75665283 254.25323486 C623.41367644 257.9742122 627.92647996 261.85398356 632.43682861 265.75006104 C636.11670577 268.92311373 639.84603202 272.01851811 643.63165283 275.06573486 C647.32612101 278.0634393 650.7313248 281.17341486 654.03790283 284.58917236 C656.37966616 286.94198175 658.88872544 289.07800156 661.40118408 291.24542236 C664.16321077 293.66396021 666.86816425 296.14211221 669.56915283 298.62823486 C673.25954357 302.02374059 676.96120738 305.40438669 680.69415283 308.75323486 C682.36096744 310.25307046 684.02761474 311.75309201 685.69415283 313.25323486 C686.52068359 313.99291504 687.34721436 314.73259521 688.1987915 315.49468994 C696.63867403 323.12875834 704.70658959 331.112616 712.74127197 339.16998291 C715.01674867 341.45085464 717.29757 343.72628461 719.57891846 346.00128174 C721.05124464 347.47426827 722.52326084 348.94756473 723.99493408 350.42120361 C724.66486893 351.08911423 725.33480377 351.75702484 726.02503967 352.44517517 C729.89784742 356.33701452 733.58322025 360.33973532 737.17176819 364.49504089 C738.88630699 366.47515269 740.65349496 368.39585191 742.45587158 370.29620361 C743.41312134 371.30856079 743.41312134 371.30856079 744.38970947 372.34136963 C745.04705078 373.03416016 745.70439209 373.72695068 746.38165283 374.44073486 C747.79096217 375.93249248 749.19981189 377.42468444 750.60821533 378.91729736 C751.29818604 379.64851807 751.98815674 380.37973877 752.69903564 381.13311768 C759.24411389 388.08826445 765.75030263 395.08047967 771.99493408 402.30792236 C773.98821711 404.58988776 776.02908311 406.8255206 778.06915283 409.06573486 C782.80168411 414.31162547 787.25513066 419.75878085 791.69415283 425.25323486 C793.10968531 426.98333012 794.52636736 428.71248542 795.94415283 430.44073486 C797.52771778 432.37804556 799.11102586 434.31556624 800.69415283 436.25323486 C801.43737793 437.16081543 801.43737793 437.16081543 802.19561768 438.08673096 C808.59129428 445.89977517 814.91351625 453.74931418 821.03399658 461.78057861 C823.02687371 464.39301893 825.04490472 466.98449432 827.07305908 469.56964111 C833.71863663 478.04424355 840.18497512 486.59162332 846.37969971 495.40020752 C848.34782703 498.17474065 850.35420768 500.92110211 852.35626221 503.67120361 C890.98633306 556.79326554 925.05627694 613.19192004 955.69415283 671.25323486 C956.45840576 672.6949707 956.45840576 672.6949707 957.23809814 674.16583252 C972.37382981 702.73591441 986.63654418 731.67584871 999.69415283 761.25323486 C1000.18045166 762.35311737 1000.18045166 762.35311737 1000.67657471 763.47521973 C1034.96197328 841.07654596 1062.72871734 921.31960445 1084.69415283 1003.25323486 C1084.88024109 1003.94538086 1085.06632935 1004.63752686 1085.25805664 1005.35064697 C1107.72375687 1089.00856533 1123.07955564 1174.32954852 1133.69415283 1260.25323486 C1133.78054016 1260.94632751 1133.86692749 1261.63942017 1133.95593262 1262.35351562 C1144.99913577 1351.09100496 1148.5925514 1440.89395554 1147.69415283 1530.25323486 C1147.67965088 1531.74877899 1147.67965088 1531.74877899 1147.66485596 1533.27453613 C1146.80067083 1617.35074746 1141.10148822 1701.65161771 1051.69415283 2196.25323486 C1051.24776459 2197.97108185 1051.24776459 2197.97108185 1050.7923584 2199.72363281 C1040.19595597 2240.45801509 1028.62204627 2280.89258276 1016.69415283 2321.25323486 C1016.45961647 2322.0468618 1016.22508011 2322.84048874 1015.98343658 2323.65816498 C995.32926609 2393.52092465 973.65010251 2463.02355114 950.71524048 2532.17120361 C949.75832518 2535.05953828 948.80533156 2537.94913394 947.85357666 2540.83917236 C947.31745611 2542.46159914 946.78124943 2544.08399747 946.24493408 2545.70635986 C946.01443359 2546.40899963 945.78393311 2547.1116394 945.54644775 2547.83557129 C942.05953774 2558.34983998 937.37441428 2565.3039625 929.69415283 2573.25323486 C929.17466064 2573.8810083 928.65516846 2574.50878174 928.11993408 2575.15557861 C920.41596385 2584.0727725 906.16201956 2589.87870795 894.69415283 2591.25323486 C878.22193452 2592.43220525 862.44197541 2590.66457427 848.99884033 2580.14385986 C846.48692097 2577.91616379 844.08804877 2575.60662495 841.69415283 2573.25323486 C840.98387939 2572.63835205 840.27360596 2572.02346924 839.54180908 2571.38995361 C828.18583724 2561.21099229 823.38357136 2545.11157667 822.44415283 2530.31573486 C822.78861201 2514.02701623 828.96272981 2498.53240317 834.09408951 2483.28933334 C835.91908972 2477.85314708 837.71531751 2472.40731196 839.51691246 2466.96333504 C840.21210794 2464.86338389 840.90841501 2462.76380335 841.60475159 2460.66423035 C846.19903037 2446.79647632 850.62600713 2432.87744489 855.00665283 2418.94073486 C855.37882935 2417.75676117 855.75100586 2416.57278748 856.13446045 2415.35293579 C857.96960071 2409.51147749 859.80156467 2403.66903158 861.63165283 2397.82598877 C863.24779799 2392.66948738 864.87517879 2387.51665468 866.50888062 2382.36569214 C885.53006091 2322.3844102 902.92460666 2261.89841147 919.69415283 2201.25323486 C920.03492859 2200.02203918 920.37570435 2198.79084351 920.72680664 2197.52233887 C937.57497959 2136.57529838 952.66241346 2075.10900284 966.03253174 2013.30670166 C966.66219971 2010.40070265 967.29649508 2007.49575774 967.93243408 2004.59112549 C993.37462687 1888.17031566 1009.17266813 1769.66741319 974.69415283 1082.25323486 C974.49346191 1081.40686462 974.292771 1080.56049438 974.08599854 1079.68847656 C954.43995659 997.08367822 928.34765899 916.48745348 895.51257324 838.20648193 C894.72882738 836.33598935 893.94847169 834.46407735 893.16827393 832.59210205 C885.24959278 813.62428285 876.64154281 795.02207668 867.76428223 776.48852539 C866.67903877 774.22166455 865.59633594 771.95360314 864.51397705 769.68536377 C856.45633825 752.81513018 848.2622296 736.09277276 839.10479736 719.78497314 C837.64206582 717.15975229 836.20927683 714.52005557 834.78399658 711.87432861 C827.39008705 698.15256264 819.63889435 684.66288072 811.69415283 671.25323486 C811.0654126 670.1907251 810.43667236 669.12821533 809.78887939 668.0335083 C802.01980985 654.92786999 794.1137854 641.95082823 785.69415283 629.25323486 C785.03544189 628.25566162 784.37673096 627.25808838 783.69805908 626.23028564 C773.91228232 611.41861417 763.9927698 596.71512252 753.69415283 582.25323486 C753.16547607 581.508479 752.63679932 580.76372314 752.09210205 579.99639893 C743.23411021 567.53806202 734.01801355 555.36549683 724.69415283 543.25323486 C724.06799072 542.4372583 723.44182861 541.62128174 722.79669189 540.78057861 C716.0986031 532.05781607 709.2969738 523.47134647 702.13555908 515.12432861 C699.95440127 512.55928703 697.84248201 509.95835622 695.75665283 507.31573486 C691.0903254 501.43293104 686.1774318 495.76820548 681.27178955 490.08526611 C679.70024167 488.26030553 678.13550998 486.42973732 676.57305908 484.59698486 C659.10992771 464.11714187 640.4620659 444.8498223 621.41876221 425.84747314 C618.70818257 423.14265544 616.00220993 420.43327964 613.29747772 417.7226162 C611.17845106 415.59995712 609.05702563 413.47970823 606.93489075 411.36015701 C605.9359691 410.36189384 604.93776564 409.36291139 603.94035339 408.36314011 C598.8785079 403.29192222 593.78761454 398.3202883 588.34083557 393.6618042 C585.96424017 391.62886893 583.67867783 389.50021441 581.38165283 387.37823486 C576.86511446 383.2541681 572.20282268 379.37386621 567.44415283 375.53448486 C564.61315705 373.18604518 561.90031686 370.74413584 559.19415283 368.25323486 C553.864286 363.35937971 548.32504895 358.79404724 542.69415283 354.25323486 C541.51088734 353.2791562 540.3286523 352.30382487 539.14727783 351.32745361 C529.4058542 343.30077975 519.39206098 335.68812043 509.25860596 328.16485596 C506.72305321 326.27477808 504.19903338 324.37035212 501.67852783 322.46026611 C481.92583027 307.503491 461.51632347 293.66980657 440.69415283 280.25323486 C439.818396 279.68830322 438.94263916 279.12337158 438.04034424 278.5413208 C420.31243555 267.13698998 402.14963622 256.43542586 383.69415283 246.25323486 C382.89638428 245.81189209 382.09861572 245.37054932 381.27667236 244.91583252 C327.48379816 215.20293457 271.78758325 191.17820669 213.69415283 171.25323486 C212.88563873 170.97555267 212.07712463 170.69787048 211.24411011 170.41177368 C198.43400089 166.02939606 185.55532149 162.04911359 172.50665283 158.44073486 C171.1377742 158.06096497 171.1377742 158.06096497 169.74124146 157.67352295 C101.45064117 138.78436775 31.49863063 126.85229904 -39.30584717 123.25323486 C-40.4408667 123.19538818 -41.57588623 123.1375415 -42.74530029 123.07794189 C-103.59820287 120.14998242 -165.10374967 122.72555785 -225.30584717 132.25323486 C-226.04883057 132.37011658 -226.79181396 132.48699829 -227.55731201 132.60742188 C-305.99664969 144.98570263 -381.94370959 167.45815896 -454.30584717 200.25323486 C-456.31624172 201.15562787 -458.32665851 202.05797137 -460.33709717 202.96026611 C-489.49540364 216.1167467 -517.5410537 231.08290582 -545.07196045 247.35137939 C-547.45557151 248.75318599 -549.84414331 250.14379107 -552.23895264 251.52618408 C-562.34188489 257.37874748 -572.12308423 263.60705747 -581.80584717 270.12823486 C-583.2650983 271.10700087 -584.72440883 272.08567832 -586.18377686 273.06427002 C-615.14052953 292.51194537 -642.89180232 313.56218892 -669.46575928 336.1651001 C-672.91724576 339.09607147 -676.40802979 341.97038237 -679.93084717 344.81573486 C-684.63658778 348.64170658 -689.10193103 352.68224835 -693.55975342 356.79229736 C-696.21809962 359.17459908 -698.94943964 361.40753935 -701.74334717 363.62823486 C-706.44616952 367.41736602 -710.70445517 371.4927053 -714.89544678 375.82891846 C-717.42896018 378.43758786 -720.01877719 380.89049075 -722.79119873 383.24517822 C-728.29183875 388.03766315 -733.40985379 393.21283799 -738.55975342 398.37432861 C-739.62999684 399.4438965 -740.70038851 400.51331607 -741.7709198 401.58259583 C-744.0022063 403.8124171 -746.23169774 406.04401326 -748.4598999 408.2769165 C-751.29616605 411.11887919 -754.13689948 413.95632728 -756.97900486 416.792449 C-759.1866105 418.99641712 -761.39179938 421.20279106 -763.59629631 423.40986824 C-764.64200696 424.45623936 -765.68844252 425.5018866 -766.73565865 426.54675102 C-771.97835238 431.78024885 -777.14424601 437.0374764 -781.95195007 442.67915344 C-783.64014352 444.64189784 -785.44399989 446.45558922 -787.30584717 448.25323486 C-790.52019448 451.42439516 -793.5233568 454.70906239 -796.46600342 458.13214111 C-798.50093535 460.47814545 -800.58875683 462.77059937 -802.68084717 465.06573486 C-806.55618459 469.35932118 -810.22806026 473.78411488 -813.86444092 478.28057861 C-816.58303965 481.59074443 -819.3765817 484.82828654 -822.18084717 488.06573486 C-826.69041338 493.28376336 -831.00362311 498.62084225 -835.22894287 504.07061768 C-838.34463452 508.07402661 -841.56657767 511.96483018 -844.86834717 515.81573486 C-849.71472547 521.4862521 -854.30445351 527.32777953 -858.80535889 533.2756958 C-860.52886057 535.54715099 -862.26272304 537.81050315 -863.99725342 540.07354736 C-870.62529328 548.73003432 -877.21066944 557.41544367 -883.68084717 566.19073486 C-884.20259521 566.89794678 -884.72434326 567.60515869 -885.26190186 568.33380127 C-893.88991394 580.08241212 -902.26468886 591.992543 -910.43084717 604.06573486 C-910.88228088 604.73243195 -911.3337146 605.39912903 -911.79882812 606.08602905 C-920.53311019 618.99715193 -928.99635596 632.06418262 -937.30584717 645.25323486 C-938.58184313 647.26628467 -939.85788489 649.27930545 -941.13397217 651.29229736 C-949.85213181 665.09344347 -958.19376042 679.08812122 -966.30584717 693.25323486 C-966.85482666 694.21084717 -967.40380615 695.16845947 -967.96942139 696.15509033 C-984.12128883 724.38849709 -999.35485163 753.11508383 -1013.93084717 782.19073486 C-1014.45131622 783.22838989 -1014.97178528 784.26604492 -1015.50802612 785.33514404 C-1024.1527574 802.60709477 -1032.27077478 820.04937784 -1039.9284668 837.77868652 C-1041.82281446 842.16258266 -1043.77943182 846.51225955 -1045.78314209 850.84698486 C-1059.51161647 880.63079368 -1071.10096381 911.45026163 -1082.30584717 942.25323486 C-1082.58023621 943.00721558 -1082.85462524 943.76119629 -1083.1373291 944.5380249 C-1107.27066173 1010.98328058 -1126.72625475 1078.57682256 -1143.30584717 1147.25323486 C-1143.53658936 1148.20734253 -1143.76733154 1149.1614502 -1144.00506592 1150.14447021 C-1165.85862916 1240.6740363 -1179.07305238 1333.18863443 -1194.30584717 1523.25323486 C-1194.3580542 1524.46489319 -1194.41026123 1525.67655151 -1194.46405029 1526.92492676 C-1198.01698954 1610.89464338 -1197.14854408 1695.21291034 -1193.9664917 1779.18145752 C-1192.03149973 1830.44490414 -1192.03149973 1830.44490414 -1207.77850342 1848.38995361 C-1219.82287488 1861.26341586 -1234.24947423 1869.51789141 -1252.18865967 1870.45635986 C-1269.95471808 1870.79022988 -1284.76779501 1866.17063969 -1298.30584717 1854.37823486 C-1314.83069949 1838.31921666 -1318.55684829 1819.03120991 -1319.42303467 1796.91339111 C-1319.50155995 1795.11357387 -1319.58049947 1793.31377466 -1319.65982056 1791.51399231 C-1320.5348864 1770.96809732 -1320.98226796 1750.40878248 -1321.37090683 1729.84887695 C-1321.43196211 1726.63199093 -1321.4949268 1723.41514639 -1321.55819702 1720.19830322 C-1323.4131304 1625.13180225 -1322.64482532 1530.04430281 -1305.30584717 1341.25323486 C-1305.10472321 1339.66354889 -1305.10472321 1339.66354889 -1304.89953613 1338.04174805 C-1297.546899 1280.05181867 -1288.11967574 1222.50205607 -1276.30584717 1165.25323486 C-1276.02611053 1163.89542908 -1276.02611053 1163.89542908 -1275.74072266 1162.51019287 C-1273.37766645 1151.06493828 -1270.90162256 1139.64793883 -1268.30584717 1128.25323486 C-1268.1266272 1127.46565796 -1267.94740723 1126.67808105 -1267.76275635 1125.86663818 C-1245.97189376 1030.34915216 -1217.01294941 936.2141299 -1171.30584717 824.25323486 C-1170.54521973 822.46393555 -1170.54521973 822.46393555 -1169.76922607 820.63848877 C-1150.63208584 775.77073981 -1130.70352738 730.70817578 -1107.10125732 687.99591064 C-1104.10039174 682.56322531 -1101.1564528 677.10499906 -1098.26678467 671.61260986 C-1089.65730661 655.25308577 -1080.79616883 639.12447155 -1071.30584717 623.25323486 C-1070.60109017 622.0688608 -1069.89667647 620.88428241 -1069.19256592 619.69952393 C-1053.09248903 592.61614895 -1036.33607942 566.06654628 -1018.76190186 539.91583252 C-1017.19786659 537.58700031 -1015.6405647 535.25398976 -1014.09197998 532.91485596 C-1010.15769942 526.97591217 -1006.13405254 521.12974705 -1001.93084717 515.37823486 C-1000.7963962 513.81728136 -999.66228475 512.25608107 -998.52850342 510.69464111 C-997.97952393 509.93941162 -997.43054443 509.18418213 -996.8649292 508.40606689 C-995.07753283 505.93797088 -993.30859794 503.45732943 -991.5446167 500.97247314 C-981.06770883 486.21608112 -970.23993529 471.74646042 -959.06903076 457.50909424 C-957.26983475 455.20715971 -955.48343355 452.89581457 -953.70037842 450.58135986 C-947.57051988 442.63293501 -941.35096131 434.80792336 -934.81365967 427.19073486 C-932.45697485 424.43025669 -930.15460375 421.63463186 -927.86834717 418.81573486 C-920.26789554 409.48852589 -912.40132635 400.39080079 -904.31756592 391.47979736 C-902.45850048 389.42219095 -900.62656359 387.34476723 -898.80584717 385.25323486 C-895.44603246 381.39796361 -892.03001699 377.59543635 -888.60272217 373.80010986 C-887.15028875 372.18958846 -885.70184041 370.57545629 -884.25897217 368.95635986 C-875.16180116 358.76479234 -865.89071997 348.68113991 -856.13496399 339.11479187 C-854.35119586 337.29938784 -852.69071446 335.42492458 -851.03607178 333.49176025 C-847.5470794 329.48071695 -843.88642463 325.6886477 -840.12225342 321.93682861 C-839.46305405 321.27667252 -838.80385468 320.61651642 -838.12467957 319.93635559 C-836.74187882 318.5528798 -835.35783641 317.17064403 -833.97259521 315.78961182 C-831.87354374 313.69591817 -829.77988777 311.59693612 -827.68670654 309.49737549 C-826.33220931 308.14353916 -824.97740185 306.79001311 -823.62225342 305.43682861 C-823.00741592 304.81996689 -822.39257843 304.20310516 -821.7591095 303.56755066 C-818.01415158 299.84235139 -814.15363283 296.30873497 -810.14042664 292.87373352 C-808.28399201 291.23393003 -806.53956136 289.5215748 -804.80584717 287.75323486 C-802.54786774 285.4599745 -800.24588213 283.28895458 -797.80584717 281.19073486 C-793.70072937 277.65488145 -789.75608389 273.9596955 -785.80584717 270.25323486 C-780.71874502 265.48782712 -775.60932571 260.77822114 -770.30584717 256.25323486 C-769.27307661 255.36677059 -768.24054789 254.48002452 -767.20819092 253.59307861 C-764.81357453 251.53673266 -762.41599978 249.48390019 -760.01678467 247.43292236 C-757.59763337 245.36352788 -755.18645983 243.28546179 -752.78240967 241.19854736 C-745.94708226 235.27651563 -738.99189185 229.5654692 -731.84881592 224.01885986 C-728.87192397 221.70559579 -725.93415842 219.347673 -723.00360107 216.97613525 C-703.16599291 200.94609372 -682.4415818 185.92899839 -661.32879639 171.62579346 C-659.97146693 170.70485378 -658.61634409 169.7806541 -657.2633667 168.85333252 C-636.06193689 154.32559685 -613.71586077 141.62397734 -591.35858154 128.98077393 C-588.80097798 127.53342885 -586.2479256 126.07856068 -583.69647217 124.62042236 C-528.89075551 93.50939395 -470.93160884 68.48353144 -411.30584717 48.25323486 C-410.65205078 48.03129456 -409.99825439 47.80935425 -409.324646 47.58068848 C-347.06129923 26.50150388 -282.53571826 12.18587065 -217.30584717 4.25323486 C-216.49990112 4.154823 -215.69395508 4.05641113 -214.86358643 3.95501709 C-203.8170143 2.6153396 -192.75897726 1.47923142 -181.67730713 0.4732666 C-179.35989915 0.25824998 -177.044333 0.02898973 -174.72869873 -0.20428467 C-117.4286183 -5.88839358 -57.29983563 -5.46695952 0 0 Z " fill="#FFFFFF" transform="translate(2520.3058471679688,539.7467651367188)"/>
<path d="M0 0 C0.98613281 0.80050781 1.97226563 1.60101562 2.98828125 2.42578125 C10.65156366 8.74301346 17.77120388 15.56203734 24.8125 22.5625 C25.68366455 23.42447998 26.5548291 24.28645996 27.45239258 25.17456055 C33.39014147 31.1405441 38.76954202 37.40963589 44 44 C44.94171934 45.15705564 45.88425808 46.31344558 46.828125 47.46875 C87.91786576 98.89719973 111.65623957 160.60668789 127 224 C127.16737671 224.68755371 127.33475342 225.37510742 127.50720215 226.08349609 C142.95692258 289.73773577 149.05885426 356.12163222 149.203125 421.53125 C149.21015237 423.52284261 149.21723913 425.51443502 149.22438049 427.50602722 C149.24377117 433.83735483 149.24881583 440.16864569 149.25 446.5 C149.25044186 447.5821793 149.25088371 448.6643586 149.25133896 449.77933121 C149.2584068 482.8283599 148.81925189 515.687535 146.25646973 548.65234375 C145.98140158 552.2427621 145.72129418 555.83405621 145.46386719 559.42578125 C142.89940069 595.06232189 139.51445638 630.55649738 135 666 C134.75766632 667.91069275 134.75766632 667.91069275 134.51043701 669.85998535 C123.56197208 756.0834515 108.69986818 841.82845176 30 1160 C29.76555176 1160.76675049 29.53110352 1161.53350098 29.28955078 1162.32348633 C25.94739386 1173.24401423 22.49750341 1184.12833115 19 1195 C18.69296143 1195.95634338 18.38592285 1196.91268677 18.06958008 1197.89801025 C-17.21913951 1307.77583386 -57.9858598 1416.52898133 -115.1204071 1541.80203247 C-117.34878911 1546.58001354 -119.54001659 1551.37358068 -121.70703125 1556.1796875 C-122.01006165 1556.85167679 -122.31309204 1557.52366608 -122.62530518 1558.21601868 C-123.23667873 1559.571999 -123.84804755 1560.92798146 -124.45941162 1562.28396606 C-133.0008224 1581.20790832 -141.91032286 1599.95511483 -150.88598633 1618.67626953 C-151.93067736 1620.85539933 -152.97421597 1623.03507748 -154.01757812 1625.21484375 C-162.62798202 1643.18865316 -171.47275403 1661.0441493 -180.375 1678.875 C-180.87969818 1679.8870752 -181.38439636 1680.89915039 -181.90438843 1681.94189453 C-188.11120576 1694.3805868 -194.44031652 1706.74298626 -200.95452881 1719.0234375 C-202.37701266 1721.71277821 -203.78014756 1724.4119411 -205.1796875 1727.11328125 C-211.94731016 1740.17279245 -218.9054014 1753.11553288 -226 1766 C-226.92087402 1767.67521729 -226.92087402 1767.67521729 -227.86035156 1769.38427734 C-253.76200785 1816.50314819 -253.76200785 1816.50314819 -261.32470703 1828.91064453 C-263.90014172 1833.14179887 -266.41395899 1837.40692685 -268.90625 1841.6875 C-275.6506697 1853.26709257 -282.39248776 1864.82676873 -289.62133789 1876.11376953 C-293.42756135 1882.06071083 -297.099367 1888.08150228 -300.75 1894.125 C-318.57852587 1923.51857045 -337.65461152 1952.20208547 -357.67724609 1980.14892578 C-360.64758801 1984.30565011 -363.58240754 1988.487677 -366.5246582 1992.66430664 C-368.88656052 1996.01468202 -371.25450664 1999.35991826 -373.6484375 2002.6875 C-389.62657117 2024.97554392 -404.50943422 2048.06263662 -419.21679688 2071.20117188 C-423.59688971 2078.07595067 -428.02898673 2084.9162042 -432.50927734 2091.72607422 C-433.4946154 2093.22909398 -434.47422412 2094.73588708 -435.44775391 2096.24658203 C-445.90636348 2112.46301874 -458.61408067 2125.21266524 -478.02856445 2129.62451172 C-492.48133174 2132.37724931 -507.96991053 2131.20603433 -521 2124 C-522.175625 2123.40445313 -522.175625 2123.40445313 -523.375 2122.796875 C-538.04963706 2114.8175411 -547.40474815 2101.71795307 -552.4375 2086.0625 C-553.62898186 2081.72172689 -554.65389928 2077.49930938 -555 2073 C-555.07734375 2072.06414063 -555.07734375 2072.06414063 -555.15625 2071.109375 C-555.8171614 2056.2388685 -550.5306177 2042.27649703 -542.5 2030.0625 C-541.4216328 2028.389479 -540.34351452 2026.71629754 -539.265625 2025.04296875 C-538.71970703 2024.20169434 -538.17378906 2023.36041992 -537.61132812 2022.49365234 C-535.61163343 2019.39897331 -533.64774645 2016.28275616 -531.68774414 2013.1628418 C-529.68283639 2009.9724885 -527.66628634 2006.78955382 -525.64990234 2003.60644531 C-524.51594031 2001.81506048 -523.38353857 2000.0226873 -522.25244141 1998.22949219 C-507.86175215 1975.43365564 -492.96458341 1952.93679753 -477.0390625 1931.1796875 C-472.98623159 1925.63524495 -469.06848991 1919.99655776 -465.14306641 1914.36157227 C-462.512276 1910.58612284 -459.87806796 1906.81519429 -457.1875 1903.08203125 C-447.48684709 1889.59179042 -438.49031906 1875.63155408 -429.421875 1861.71289062 C-427.37273608 1858.56882554 -425.31370065 1855.43140698 -423.25 1852.296875 C-415.82425129 1840.99451373 -408.75101962 1829.49811934 -401.76611328 1817.91894531 C-400.01889122 1815.03122247 -398.25981253 1812.15110984 -396.49609375 1809.2734375 C-388.74207562 1796.61536293 -381.19237419 1783.85081874 -373.75 1771.00732422 C-372.01164228 1768.02000692 -370.25836357 1765.04198523 -368.5 1762.06640625 C-361.8029671 1750.71255804 -355.36874003 1739.25556706 -349.17089844 1727.62133789 C-345.47733749 1720.69874045 -341.66213059 1713.8634379 -337.75 1707.0625 C-331.3933969 1695.96805608 -325.57134314 1684.6125213 -319.79394531 1673.20922852 C-315.77559966 1665.29525457 -311.63117665 1657.4709866 -307.34375 1649.69921875 C-300.72069195 1637.65731313 -294.54543986 1625.3971985 -288.41870117 1613.09814453 C-286.880536 1610.0104863 -285.33519873 1606.92648375 -283.78788185 1603.84340382 C-276.19946428 1588.71424993 -268.89864976 1573.47768559 -261.82006836 1558.10351562 C-258.6435781 1551.20709575 -255.34391925 1544.37899151 -252 1537.5625 C-245.9561424 1525.15184857 -240.25693566 1512.59991964 -234.66452026 1499.97979736 C-232.46886572 1495.03334206 -230.23569048 1490.10459856 -227.9921875 1485.1796875 C-208.79122545 1442.98980911 -190.97655204 1400.27144584 -173.73918915 1357.24843597 C-172.58691831 1354.3734257 -171.43303535 1351.49906691 -170.27886963 1348.62481689 C-155.33407263 1311.38318527 -141.17219108 1273.84679804 -127.8515625 1235.9921875 C-127.54586334 1235.12415497 -127.24016418 1234.25612244 -126.92520142 1233.36178589 C-98.40345941 1152.16665986 -73.53512446 1070.08204261 -8 774 C-7.68125916 772.18514099 -7.68125916 772.18514099 -7.3560791 770.33361816 C6.42169295 691.80951141 15.90257077 612.57206459 21.23828125 533.03125 C21.33314064 531.62230217 21.33314064 531.62230217 21.42991638 530.18489075 C21.63002917 527.12381195 21.81593028 524.0620858 22 521 C22.04205755 520.34311314 22.0841151 519.68622627 22.12744713 519.00943375 C22.99304212 505.37409249 23.16331362 491.77727598 23.16796875 478.1171875 C23.17119638 475.84685243 23.17456147 473.57651754 23.17805481 471.30618286 C23.18400064 466.56788656 23.18589964 461.82960836 23.18530273 457.09130859 C23.18522182 452.30546257 23.19211614 447.51971297 23.20581055 442.73388672 C23.28088028 416.07873929 23.18732184 389.57777791 21 363 C20.85221822 361.08530493 20.7046586 359.17059268 20.55737305 357.25585938 C20.17312927 352.43595094 19.72857046 347.62388586 19.25 342.8125 C19.16763092 341.97411591 19.08526184 341.13573181 19.00039673 340.27194214 C10.94275067 259.29867849 -8.13875539 169.7508787 -76.1875 99.24609375 C-98.26106483 81.61789961 -124.25041753 68.02996947 -153 67 C-154.21042969 66.94005859 -154.21042969 66.94005859 -155.4453125 66.87890625 C-158.31023126 66.80443588 -161.13630106 66.8783623 -164 67 C-165.3096875 67.05542969 -166.619375 67.11085938 -167.96875 67.16796875 C-198.25903322 69.10431856 -227.57390462 82.49768273 -252 100 C-252.58136719 100.41459473 -253.16273438 100.82918945 -253.76171875 101.25634766 C-300.02543179 134.64403301 -315.02326925 189.53769082 -323.85546875 243.5234375 C-333.0913786 302.84609147 -336.17054729 362.82660333 -339.41825294 422.71002007 C-344.03742068 507.87569067 -349.07733027 593.03649958 -433 1051 C-433.2389801 1051.82203918 -433.47796021 1052.64407837 -433.72418213 1053.49102783 C-453.53162346 1121.60476203 -476.98316847 1188.54127413 -503.01934814 1254.50994873 C-504.15459921 1257.39255516 -505.28041089 1260.27875648 -506.40458679 1263.16569519 C-525.72715415 1312.73807772 -547.77733299 1361.31940763 -570.74975586 1409.29443359 C-572.33562281 1412.60660679 -573.91315283 1415.92261901 -575.48657227 1419.24072266 C-582.23615281 1433.45135991 -589.19725482 1447.55160104 -596.2434082 1461.6171875 C-597.76418249 1464.65301618 -599.28128891 1467.69066134 -600.7974844 1470.72877884 C-607.70744675 1484.57084898 -614.7066213 1498.35562475 -622 1512 C-622.58740967 1513.10182617 -623.17481934 1514.20365234 -623.7800293 1515.33886719 C-625.28301306 1518.14690902 -626.79470921 1520.94993768 -628.3125 1523.75 C-628.85390625 1524.74966797 -629.3953125 1525.74933594 -629.953125 1526.77929688 C-634.25262832 1534.68819849 -638.66950685 1542.52661393 -643.12207031 1550.35009766 C-647.02622488 1557.22756056 -650.81569178 1564.16073889 -654.5625 1571.125 C-663.07860964 1586.91933921 -672.03487127 1602.43973445 -681.16326904 1617.88647461 C-681.94658752 1619.21235151 -682.7289232 1620.53880975 -683.5100708 1621.8659668 C-694.63007357 1640.74004264 -706.61855567 1659.07629005 -718.67724609 1677.35986328 C-720.50305178 1680.12962958 -722.32389409 1682.90261562 -724.14453125 1685.67578125 C-731.7551356 1697.24136978 -739.56607387 1708.6465525 -747.55560303 1719.95343018 C-749.37178301 1722.52678031 -751.17378619 1725.10983976 -752.97265625 1727.6953125 C-758.99057745 1736.32659762 -765.06821563 1744.9087308 -771.24853516 1753.42456055 C-774.8554808 1758.39876985 -778.40920925 1763.40727405 -781.9375 1768.4375 C-786.76664251 1775.3132144 -791.71965375 1782.09043012 -796.71850586 1788.84350586 C-800.6833614 1794.20240482 -804.60656247 1799.58902287 -808.5 1805 C-814.09311054 1812.76783153 -819.75279289 1820.48446403 -825.4453125 1828.1796875 C-827.87370012 1831.46452139 -830.28282345 1834.76241172 -832.6796875 1838.0703125 C-843.8576307 1853.46406514 -854.55489081 1868.07324491 -873 1875 C-873.79277344 1875.3196875 -874.58554688 1875.639375 -875.40234375 1875.96875 C-889.28507882 1880.70598661 -906.89699527 1879.34577777 -920.1875 1873.62890625 C-935.56721526 1866.06600382 -948.11193099 1853.1975818 -954 1837 C-959.10123992 1821.12264684 -958.51485578 1804.23971905 -951.4375 1789.0625 C-948.00129509 1782.61961579 -943.77886215 1776.79793665 -939.43896484 1770.94970703 C-937.39078907 1768.17455743 -935.38314065 1765.3708392 -933.37158203 1762.5690918 C-925.42320063 1751.50813285 -917.3250601 1740.55784469 -909.22949219 1729.60449219 C-896.62163815 1712.54107405 -884.20167973 1695.3561847 -872 1678 C-870.02212564 1675.18658795 -868.04317169 1672.37394351 -866.0625 1669.5625 C-865.57289795 1668.86737305 -865.0832959 1668.17224609 -864.57885742 1667.45605469 C-860.3460893 1661.46072629 -856.04921565 1655.51254559 -851.71508789 1649.59008789 C-848.06106309 1644.5672051 -844.59056098 1639.43787901 -841.16015625 1634.26000977 C-838.89727063 1630.84496549 -836.61807094 1627.44125038 -834.3359375 1624.0390625 C-814.20269395 1593.98529627 -794.87581413 1563.45758171 -777 1532 C-776.50612793 1531.13165527 -776.01225586 1530.26331055 -775.50341797 1529.36865234 C-772.21759268 1523.58498661 -768.94839032 1517.79210997 -765.68701172 1511.99462891 C-764.01623131 1509.02881233 -762.33863135 1506.06693592 -760.66015625 1503.10546875 C-751.77091086 1487.37804683 -743.26059183 1471.46420486 -734.83740234 1455.48388672 C-733.33990493 1452.64449155 -731.83804382 1449.80753853 -730.33203125 1446.97265625 C-712.07248909 1412.5448884 -694.19903301 1377.83503658 -677.95703125 1342.40625 C-675.73344955 1337.5615828 -673.4419101 1332.75636989 -671.10449219 1327.96582031 C-662.15145719 1309.57927753 -654.12176034 1290.7639183 -646 1272 C-645.63352356 1271.15447571 -645.26704712 1270.30895142 -644.88946533 1269.43780518 C-616.63801447 1204.23398266 -592.03109939 1137.54955421 -570 1070 C-569.63388611 1068.87939178 -569.63388611 1068.87939178 -569.26037598 1067.73614502 C-538.76371591 974.29641137 -515.70182535 878.03567495 -479 619 C-478.88827454 617.7964386 -478.77654907 616.5928772 -478.66143799 615.35284424 C-478.3251233 611.71592736 -477.99188701 608.07874395 -477.66015625 604.44140625 C-477.5656871 603.41127914 -477.47121796 602.38115204 -477.37388611 601.31980896 C-475.37007214 579.11323872 -473.63391063 556.88440829 -472.1015625 534.640625 C-472.01790436 533.4308367 -471.93424622 532.22104839 -471.84805298 530.97459984 C-470.40957652 510.0605441 -469.16246308 489.13805938 -468 468.20703125 C-467.95885842 467.46650347 -467.91771684 466.7259757 -467.87532854 465.96300769 C-467.15858109 453.04966642 -466.45316015 440.13570592 -465.75 427.22161865 C-463.99540649 395.00355156 -462.23915125 362.79108051 -459.89453125 330.609375 C-459.81546036 329.51781916 -459.73638947 328.42626331 -459.65492249 327.30163002 C-456.01910763 277.47759866 -450.51456042 227.68049784 -439 179 C-438.72188477 177.81470703 -438.44376953 176.62941406 -438.15722656 175.40820312 C-427.5715989 130.91645186 -410.22072781 81.50419117 -379 47 C-378.16339844 46.05640625 -377.32679688 45.1128125 -376.46484375 44.140625 C-367.2723676 33.87268266 -357.63115134 23.78770254 -347 15 C-346.46600586 14.55221191 -345.93201172 14.10442383 -345.38183594 13.64306641 C-328.60845443 -0.40049433 -311.00780428 -12.18045964 -292 -23 C-291.32259766 -23.39171387 -290.64519531 -23.78342773 -289.94726562 -24.18701172 C-263.30492133 -39.53962723 -233.04268397 -49.10805959 -203 -55 C-202.10684082 -55.17934082 -201.21368164 -55.35868164 -200.29345703 -55.54345703 C-129.32936869 -69.11626557 -54.79720819 -45.51235597 0 0 Z " fill="#FFFFFF" transform="translate(2612,1528)"/>
<path d="M0 0 C1.19415527 0.17160645 2.38831055 0.34321289 3.61865234 0.52001953 C34.11315354 5.05468356 63.11047157 13.14653326 92.11968994 23.34173584 C93.77975405 23.92289569 95.44310674 24.49464338 97.10693359 25.06494141 C114.75323252 31.13095691 131.34738088 39.65604762 148 48 C149.05380859 48.52561523 150.10761719 49.05123047 151.19335938 49.59277344 C177.79052584 62.92776621 202.66072072 79.52691351 226.22998047 97.64306641 C227.93889487 98.95315554 229.65717974 100.24978324 231.37890625 101.54296875 C243.12852544 110.40733161 254.1392118 120.06814392 264.890625 130.109375 C266.8002066 131.89243217 268.7243822 133.64813144 270.671875 135.390625 C277.95650993 141.91732104 284.89051359 148.78198608 291.8125 155.6875 C292.56270416 156.43382187 292.56270416 156.43382187 293.32806396 157.19522095 C298.57519882 162.42093849 303.7301545 167.6839339 308.54858398 173.31225586 C310.50456378 175.58671984 312.56857783 177.75391391 314.625 179.9375 C320.61177766 186.51121665 325.92002033 193.55377432 331.24511719 200.66699219 C333.01600019 203.02127126 334.80646201 205.35946092 336.6015625 207.6953125 C351.06086896 226.59848156 364.06174599 246.41940197 376 267 C376.75845215 268.29478271 376.75845215 268.29478271 377.53222656 269.61572266 C405.05700705 316.7093032 426.45381835 367.74329509 442 420 C442.22776123 420.76129211 442.45552246 421.52258423 442.69018555 422.3069458 C462.5492962 488.81065747 474.29987812 556.99582966 481 626 C481.07047546 626.71808838 481.14095093 627.43617676 481.21356201 628.17602539 C481.31836884 629.24614868 481.31836884 629.24614868 481.42529297 630.33789062 C481.51676102 631.27066833 481.51676102 631.27066833 481.6100769 632.22229004 C485.29457649 671.0022721 486.38252252 709.7554418 486.31765366 748.69747543 C486.3124169 752.05325254 486.31050092 755.40902034 486.30899048 758.76480103 C486.28293562 792.05975336 485.73797498 825.19397107 483.19598389 858.40478516 C483.01270322 860.83178416 482.84146235 863.25921105 482.67626953 865.6875 C481.9836354 875.81398453 481.05164669 885.90487323 480 896 C479.89385376 897.02667786 479.78770752 898.05335571 479.67834473 899.11114502 C471.64844167 976.50105477 459.76295777 1053.31190807 411.93756104 1277.2354126 C411.13487645 1280.45843079 410.3355251 1283.68223438 409.53824234 1286.90659046 C390.89681991 1362.29563718 369.91688142 1437.10583671 346 1511 C345.69942688 1511.92880981 345.39885376 1512.85761963 345.08917236 1513.8145752 C340.39767039 1528.3016946 335.66602695 1542.77551947 330.90759277 1557.24078369 C330.07345897 1559.77667387 329.24026878 1562.31287218 328.40722656 1564.84912109 C314.47541767 1607.22664 299.72323328 1649.3108254 284.18164062 1691.12402344 C282.37553214 1695.98415943 280.57948279 1700.84793422 278.78710938 1705.71315002 C271.68271318 1724.99476055 264.46243726 1744.20551956 256.72984314 1763.24552917 C254.09041494 1769.75423827 251.49241263 1776.27930498 248.89453125 1782.8046875 C215.96725309 1865.4823573 180.90611932 1947.35564227 141.77861023 2027.30654907 C138.98395496 2033.02106102 136.23376406 2038.75611205 133.5 2044.5 C112.57179958 2088.37161874 112.57179958 2088.37161874 103.7109375 2104.89453125 C101.44016335 2109.13915943 99.23447704 2113.41531924 97.0390625 2117.69921875 C96.6830899 2118.39380692 96.32711731 2119.08839508 95.96035767 2119.80403137 C95.22287214 2121.24331235 94.4854153 2122.68260802 93.74798584 2124.12191772 C87.65747584 2136.00253348 81.46182453 2147.80750493 75.015625 2159.5 C71.81669577 2165.30846963 68.70177776 2171.16118928 65.58398438 2177.01342773 C58.77986111 2189.7780877 51.79495971 2202.43374896 44.67773438 2215.02685547 C43.04413693 2217.92178412 41.41934025 2220.82147684 39.796875 2223.72265625 C32.77884211 2236.245898 25.52921723 2248.61955937 18.18359375 2260.953125 C15.31939327 2265.76272519 12.48014984 2270.58622578 9.66015625 2275.421875 C9.30057327 2276.03840942 8.9409903 2276.65494385 8.57051086 2277.29016113 C8.21136093 2277.90597046 7.852211 2278.52177979 7.48217773 2279.15625 C-0.14440413 2292.23198207 -7.93371856 2305.18945779 -16 2318 C-16.50337891 2318.80050781 -17.00675781 2319.60101562 -17.52539062 2320.42578125 C-20.51205895 2325.17224517 -23.50966775 2329.91169213 -26.51171875 2334.6484375 C-28.0217001 2337.03428729 -29.52714356 2339.42294272 -31.03125 2341.8125 C-31.79296509 2343.02172119 -31.79296509 2343.02172119 -32.57006836 2344.25537109 C-33.5065081 2345.7422162 -34.44231533 2347.22946006 -35.37719727 2348.71728516 C-44.56677233 2363.2945425 -54.03870641 2377.69477402 -63.50585938 2392.0925293 C-64.75005239 2393.98628338 -65.99257154 2395.88113827 -67.23339844 2397.77709961 C-74.61276074 2409.05134146 -82.14391191 2420.15944005 -90.12109375 2431.02026367 C-92.61954615 2434.43663846 -94.9992198 2437.92115726 -97.34120178 2441.44630432 C-108.48130862 2458.18248266 -121.51120593 2471.86966946 -141.85742188 2476.53442383 C-158.12893802 2479.78518292 -176.38678013 2477.35493312 -190.4375 2468.02734375 C-205.20124174 2456.34688344 -215.76258327 2442.17159043 -218 2423 C-219.66827023 2401.29150243 -212.00128836 2385.76885332 -199.70556641 2368.41357422 C-197.08769486 2364.70898245 -194.49837086 2360.98464102 -191.90771484 2357.26098633 C-190.55203474 2355.31276882 -189.19441503 2353.36589895 -187.83447266 2351.4206543 C-183.80777182 2345.65019842 -179.8626723 2339.83186476 -175.97143555 2333.96923828 C-174.08353186 2331.12580984 -172.18441125 2328.29026351 -170.28125 2325.45703125 C-160.65316139 2311.09702771 -151.26196739 2296.59844767 -142 2282 C-141.18039795 2280.71053467 -141.18039795 2280.71053467 -140.34423828 2279.39501953 C-132.46300648 2266.99189088 -124.68966718 2254.52276005 -117 2242 C-116.01507568 2240.39608398 -116.01507568 2240.39608398 -115.01025391 2238.75976562 C-105.39847763 2223.08011935 -96.01470777 2207.28920367 -86.89453125 2191.31689453 C-85.27046104 2188.47351595 -83.64272162 2185.63228236 -82.01283264 2182.79223633 C-69.17409638 2160.42033656 -56.5208462 2137.95917171 -44.34375 2115.21875 C-42.30427462 2111.4138973 -40.24775616 2107.62024423 -38.15625 2103.84375 C-30.59877878 2090.18708017 -23.46668558 2076.32444007 -16.38037109 2062.41918945 C-15.56360848 2060.81715279 -14.74671433 2059.21518318 -13.9296875 2057.61328125 C-13.31892113 2056.41570694 -13.31892113 2056.41570694 -12.69581604 2055.19393921 C-9.8824151 2049.69101107 -7.01370828 2044.21943603 -4.12109375 2038.7578125 C1.68655331 2027.7747568 7.26045427 2016.67646175 12.8125 2005.5625 C13.34046173 2004.50663696 13.86842346 2003.45077393 14.41238403 2002.36291504 C21.98859752 1987.19817762 29.33490096 1971.96800436 36.3671875 1956.54345703 C39.30138388 1950.17579462 42.32411324 1943.84995359 45.33203125 1937.51687622 C53.43674868 1920.43911073 61.32804823 1903.27632914 69 1886 C69.32981873 1885.25764099 69.65963745 1884.51528198 69.99945068 1883.75042725 C91.47025212 1835.39451454 112.74673983 1786.79020992 131.62841797 1737.35498047 C134.09930997 1730.88921744 136.60914275 1724.44404924 139.21484375 1718.03125 C148.29928767 1695.65554646 156.70208778 1673.05984913 164.95323181 1650.36427307 C166.90135916 1645.00680556 168.86219243 1639.6547906 170.8515625 1634.3125 C180.59347704 1608.12492566 189.67355236 1581.69302426 198.85107422 1555.30358887 C199.86618326 1552.38477288 200.88220842 1549.46627771 201.8984375 1546.54785156 C210.27286681 1522.47706346 218.261175 1498.28243574 226 1474 C226.31348389 1473.01654602 226.62696777 1472.03309204 226.94995117 1471.01983643 C247.28401041 1407.1151984 265.57142583 1342.57190113 282.08837891 1277.58001709 C282.96695998 1274.1297511 283.85140183 1270.6810514 284.73828125 1267.23291016 C305.28792771 1187.28592667 322.38643621 1106.41749379 336 1025 C336.26109558 1023.43856262 336.26109558 1023.43856262 336.52746582 1021.84558105 C346.09082357 964.36448428 353.49957112 906.39272914 357.75714111 848.27313232 C357.99281545 845.09682987 358.24062532 841.92170018 358.49169922 838.74658203 C360.83833183 808.64841619 361.28262833 778.60305296 361.30962753 748.42858887 C361.31244357 745.5575297 361.31796178 742.68648442 361.32363892 739.81542969 C361.37025705 707.28028382 360.32302398 674.84091079 357.25 642.4375 C357.12594788 641.10454391 357.12594788 641.10454391 356.99938965 639.74465942 C348.79302154 552.28300749 330.10324419 465.35642246 285 364 C284.59604004 363.14680176 284.19208008 362.29360352 283.77587891 361.41455078 C268.01528177 328.35275009 247.92282448 297.51003874 225 269 C224.24203125 268.04738281 223.4840625 267.09476563 222.703125 266.11328125 C214.22171122 255.57166589 204.97143331 245.8720019 195.45053101 236.27529907 C194.04155849 234.85440998 192.63656153 233.42958212 191.23168945 232.00463867 C185.8842952 226.6505536 180.38354473 221.69326739 174.45288086 216.99145508 C172.05402407 215.04386129 169.80466927 212.99972104 167.5625 210.875 C118.37399431 166.26397355 53.88754555 137.48275547 -11 126 C-12.53188965 125.72881348 -12.53188965 125.72881348 -14.09472656 125.45214844 C-43.96744984 120.46840721 -77.20189979 120.64896915 -107 126 C-108.01288086 126.17692383 -109.02576172 126.35384766 -110.06933594 126.53613281 C-142.06739687 132.238465 -173.41527883 141.4509379 -203 155 C-203.96357422 155.44069824 -204.92714844 155.88139648 -205.91992188 156.33544922 C-220.04863005 162.8504516 -233.73902977 169.85851271 -247 178 C-247.63437988 178.38752441 -248.26875977 178.77504883 -248.92236328 179.17431641 C-258.31500252 184.95112758 -267.19170982 191.37522725 -276 198 C-276.83313721 198.62044189 -276.83313721 198.62044189 -277.68310547 199.25341797 C-291.52810699 209.57166632 -304.1396627 220.95409497 -316.375 233.125 C-316.88519684 233.62992981 -317.39539368 234.13485962 -317.92105103 234.65509033 C-324.75344616 241.43287253 -331.0030103 248.45795469 -337 256 C-338.55925805 257.83609142 -340.12103933 259.67004964 -341.6875 261.5 C-403.08637826 335.12136102 -439.02446611 433.27327974 -462 553 C-462.09863342 553.69607361 -462.19726685 554.39214722 -462.29888916 555.10931396 C-465.58355292 578.5119609 -467.70545854 602.03145141 -469.65799713 625.57641053 C-469.85118588 627.90584079 -470.04527298 630.23519522 -470.23936462 632.5645504 C-472.97591382 665.48589004 -475.22862285 698.43431914 -477.38287354 731.39807129 C-478.38779814 746.77198466 -479.42152411 762.1439894 -480.45605707 777.51593447 C-480.56326494 779.10892602 -480.67043108 780.70192038 -480.77755499 782.29491758 C-486.07110063 861.00723836 -492.2139083 939.82246805 -503 1018 C-503.23399506 1019.70860199 -503.23399506 1019.70860199 -503.47271729 1021.45172119 C-513.26813087 1092.91494243 -525.83570294 1163.9148153 -543 1234 C-543.34097717 1235.39324493 -543.34097717 1235.39324493 -543.68884277 1236.81463623 C-556.77733655 1290.16277459 -572.12368544 1342.93111534 -590.5625 1394.6875 C-590.98823807 1395.89101105 -590.98823807 1395.89101105 -591.4225769 1397.11883545 C-599.34879001 1419.43946406 -608.98069806 1437.13538635 -631 1448 C-649.03516389 1454.84305647 -666.33116946 1454.46318587 -684.0546875 1446.5703125 C-699.72681934 1438.21461356 -710.35460314 1425.22415655 -716.23828125 1408.640625 C-717.95483972 1402.68988896 -718.26949698 1396.84024443 -718.375 1390.6875 C-718.41238281 1389.90310547 -718.44976563 1389.11871094 -718.48828125 1388.31054688 C-718.69110137 1373.96665758 -711.84309027 1359.455972 -707.06994629 1346.1444397 C-693.84955553 1309.14707113 -682.70639839 1271.45952223 -672.65893555 1233.48602295 C-671.9904131 1230.96383067 -671.3169042 1228.44300957 -670.64257812 1225.92236328 C-662.78655705 1196.48950879 -656.11676769 1166.8404179 -650 1137 C-649.83153564 1136.17937073 -649.66307129 1135.35874146 -649.48950195 1134.51324463 C-647.14337823 1123.04084528 -645.02348192 1111.53334836 -643 1100 C-642.80384094 1098.88490051 -642.60768188 1097.76980103 -642.40557861 1096.62091064 C-635.19561733 1055.53644959 -629.00105276 1014.41774017 -624 973 C-623.87729736 971.99028137 -623.75459473 970.98056274 -623.62817383 969.94024658 C-614.85319336 897.59523894 -609.7454565 824.8246162 -604.94265151 752.12786627 C-604.79648586 749.91598631 -604.65014728 747.70411786 -604.5037632 745.49225235 C-603.57483561 731.45381993 -602.64800519 717.41527136 -601.7433939 703.37524849 C-599.87141747 674.32973044 -597.88507314 645.30639076 -595.3671875 616.30859375 C-595.26492292 615.13077961 -595.16265835 613.95296547 -595.05729485 612.73945999 C-590.62871956 562.05194936 -585.15516563 511.27594391 -572 462 C-571.79544189 461.22857666 -571.59088379 460.45715332 -571.38012695 459.66235352 C-547.89703323 371.31355836 -512.57383582 286.22008044 -444 190 C-443.34773438 189.1646875 -442.69546875 188.329375 -442.0234375 187.46875 C-427.88518763 169.54866374 -412.22780463 153.14437837 -396.125 137 C-395.53709686 136.40941803 -394.94919373 135.81883606 -394.34347534 135.21035767 C-388.07160173 128.91682787 -381.77870307 122.75278303 -375 117 C-373.68599205 115.79330667 -372.37318376 114.58530317 -371.0625 113.375 C-364.72505424 107.73565498 -357.91274821 102.69143196 -351.1328125 97.60205078 C-349.208476 96.15659564 -347.29140588 94.70202989 -345.375 93.24609375 C-291.14556181 52.40139447 -227.86309427 24.64087795 -162 9 C-160.10933085 8.53663845 -158.21870454 8.07310206 -156.328125 7.609375 C-142.67110248 4.32026824 -128.92093161 1.86683005 -115 0 C-113.88125488 -0.15243164 -112.76250977 -0.30486328 -111.60986328 -0.46191406 C-75.05448396 -5.21016504 -36.49574933 -5.29335546 0 0 Z " fill="#FFFFFF" transform="translate(2512,1239)"/>
<path d="M0 0 C2.34689923 -0.00238668 4.69377879 -0.00770295 7.0406723 -0.01329041 C33.28546057 -0.05893685 59.27332338 1.18070983 85.32320404 4.56007385 C86.15817413 4.66678406 86.99314423 4.77349426 87.85341644 4.88343811 C127.51214979 9.97947681 166.58312701 18.12880638 204.69820404 30.31007385 C206.05851715 30.74069664 207.41887047 31.17119243 208.77925873 31.60157776 C241.37561761 41.95183244 272.92627391 54.36043378 303.69820404 69.31007385 C304.86963959 69.87726135 306.04107513 70.44444885 307.24800873 71.02882385 C323.40657869 78.87378644 339.18443926 87.25795763 354.69820404 96.31007385 C355.48936615 96.76462952 356.28052826 97.21918518 357.09566498 97.68751526 C368.89594063 104.4693115 380.25119978 111.89165226 391.57320404 119.43507385 C392.26935822 119.89848175 392.96551239 120.36188965 393.68276215 120.83934021 C406.87173451 129.63348085 419.79733117 138.73290491 432.38570404 148.37257385 C433.28853119 149.06230286 434.19135834 149.75203186 435.12154388 150.46266174 C441.42079849 155.29140817 447.60230239 160.22684642 453.69820404 165.31007385 C455.53144935 166.78934961 457.36478515 168.26851323 459.19820404 169.74757385 C464.0016002 173.67388769 468.59773324 177.79044248 473.16304779 181.98976135 C475.23146163 183.88288588 477.32226281 185.73259089 479.44820404 187.56007385 C492.19126149 198.68029894 504.16914324 210.62115242 516.10787201 222.58937073 C518.71886759 225.20578025 521.33523964 227.81672931 523.95211029 230.42726135 C525.63862932 232.11444043 527.32483853 233.80192927 529.01070404 235.48976135 C529.78059662 236.2576297 530.5504892 237.02549805 531.34371185 237.81663513 C535.9954076 242.48836584 540.41957683 247.29511106 544.69820404 252.31007385 C545.66032068 253.42736724 546.62254005 254.54457217 547.58492279 255.66163635 C549.03317846 257.35262927 550.47972094 259.04507809 551.92623138 260.73756409 C554.53652291 263.79039351 557.15250978 266.83758939 559.78804779 269.8686676 C565.95043309 276.97136238 571.83082637 284.21683259 577.4936142 291.72315979 C579.47499599 294.33341144 581.49811529 296.91134869 583.51070404 299.49757385 C596.3807352 316.21750645 608.14046711 333.67004011 619.69820404 351.31007385 C620.5472934 352.60364807 620.5472934 352.60364807 621.41353607 353.9233551 C655.67762273 406.37970358 681.82589167 463.36470379 702.69820404 522.31007385 C702.94959137 523.01956177 703.2009787 523.72904968 703.45998383 524.46003723 C736.61876032 618.35415319 755.58982436 717.65452318 775.4703331 912.65552139 C775.63286739 915.01882795 775.79769044 917.38196707 775.96269989 919.74510193 C776.96543189 934.21731422 777.87303952 948.68979791 778.01461029 963.20069885 C778.0320076 964.16127197 778.04940491 965.12184509 778.06732941 966.11152649 C778.04637499 981.98182539 772.00542722 996.768093 760.93257904 1008.13819885 C760.19523529 1008.8549176 759.45789154 1009.57163635 758.69820404 1010.31007385 C758.08461029 1010.9442926 757.47101654 1011.57851135 756.83882904 1012.23194885 C745.17510494 1023.49691315 729.23961462 1027.84318834 713.4088974 1027.65748596 C696.73677301 1027.12590081 682.15109433 1020.79087152 670.19820404 1009.12257385 C658.42394747 995.87653521 653.80161188 981.40976924 652.67476654 963.8686676 C652.55182472 962.09160431 652.55182472 962.09160431 652.42639923 960.27864075 C652.17561668 956.62293805 651.9353307 952.9666856 651.69820404 949.31007385 C651.62757751 948.23303192 651.55695099 947.15598999 651.48418427 946.04631042 C651.2104677 941.87118619 650.93851618 937.69594927 650.66779327 933.52062988 C644.83788808 844.04524731 634.29251204 754.98850001 582.69820404 560.31007385 C582.46637421 559.64358826 582.23454437 558.97710266 581.99568939 558.29042053 C575.47249276 539.54582652 568.09223074 521.30113592 559.69820404 503.31007385 C559.20175385 502.2441803 558.70530365 501.17828674 558.19380951 500.08009338 C536.74098428 454.24747003 511.11230076 410.22094327 478.81929779 371.11476135 C475.85616604 367.52325232 472.98968962 363.86346401 470.13570404 360.18507385 C461.4114774 349.00572486 452.03912851 338.42102567 442.34908295 328.07423401 C440.54855977 326.15016118 438.75418079 324.22045843 436.95992279 322.2905426 C423.80237946 308.12687541 423.80237946 308.12687541 409.61617279 295.01319885 C407.61106497 293.23269578 405.75296525 291.35914829 403.88570404 289.43507385 C399.65448677 285.15484634 395.06781203 281.42592944 390.37496185 277.66603088 C388.51929124 276.16539102 386.68192886 274.64416564 384.84664154 273.1186676 C357.05390123 250.02250711 327.95181187 228.53396863 296.62740326 210.42628479 C295.24100723 209.6241331 293.8575581 208.81688012 292.47603607 208.00636292 C277.50169431 199.2223098 262.19527 191.13109192 246.69820404 183.31007385 C245.85080658 182.88097717 245.00340912 182.45188049 244.13033295 182.00978088 C168.02210027 143.78738987 77.98747059 122.34625199 -7.30179596 125.31007385 C-7.93758575 125.33198792 -8.57337555 125.35390198 -9.2284317 125.3764801 C-98.8434461 128.54998635 -185.95454716 150.51579241 -312.30179596 228.31007385 C-313.02834381 228.85260803 -313.75489166 229.39514221 -314.50345612 229.95411682 C-323.00158821 236.31418977 -331.29395493 242.85206961 -339.33695221 249.77882385 C-342.05416478 252.09865751 -344.81988277 254.33450852 -347.61429596 256.56007385 C-360.04434283 266.74776851 -371.33620751 278.23467461 -382.72205353 289.55509949 C-384.05129628 290.87625831 -385.38201183 292.19593722 -386.71430206 293.51402283 C-393.689756 300.42299058 -400.39415781 307.33368791 -406.4973526 315.03565979 C-408.65333265 317.75316894 -410.93322515 320.27701896 -413.30179596 322.81007385 C-421.89209055 332.16925284 -429.62844126 342.19809433 -437.30179596 352.31007385 C-437.76988678 352.9251178 -438.2379776 353.54016174 -438.72025299 354.17384338 C-466.16992416 390.28700155 -490.53487705 428.46497561 -512.05179596 468.39601135 C-521.8747794 486.57212247 -533.39271612 500.85680989 -553.67679596 507.74757385 C-571.04879878 512.1965014 -590.07300413 510.3275305 -605.58304596 501.1811676 C-619.6749869 491.48283468 -630.06033025 477.87401251 -633.82572174 460.95606995 C-640.19238377 425.57048891 -615.72737371 393.93217667 -598.30179596 365.31007385 C-597.70463776 364.32684143 -597.10747955 363.34360901 -596.49222565 362.33058167 C-588.61968183 349.4192605 -580.36765195 336.77153298 -571.98929596 324.18507385 C-571.53093353 323.49564697 -571.07257111 322.80622009 -570.60031891 322.09590149 C-564.34600757 312.70137834 -557.9180184 303.45308411 -551.30179596 294.31007385 C-550.36799103 293.01480774 -550.36799103 293.01480774 -549.41532135 291.69337463 C-541.83220802 281.20913357 -533.98236316 271.00364407 -525.73001862 261.0381012 C-523.69717327 258.57853207 -521.68881973 256.0991857 -519.67679596 253.62257385 C-511.98906908 244.25140313 -504.17134786 235.04805934 -495.93070221 226.1577301 C-493.46206037 223.48367379 -491.03388024 220.77847471 -488.61429596 218.06007385 C-485.33616421 214.40212292 -481.95427693 210.8993555 -478.41898346 207.48976135 C-476.55279546 205.56848293 -474.82327596 203.59805059 -473.08304596 201.5639801 C-469.29200032 197.20140485 -465.17296024 193.28649188 -460.92679596 189.37257385 C-456.29427201 185.06272812 -451.67938053 180.75739797 -447.23929596 176.24757385 C-444.07754216 173.04342106 -440.80394178 170.04486889 -437.38773346 167.11476135 C-435.05154095 165.09356109 -432.77214745 163.01628546 -430.48929596 160.93507385 C-426.24738746 157.11092907 -421.89628499 153.4611793 -417.45413971 149.87257385 C-415.11319715 147.97986473 -412.79930384 146.0575721 -410.49320221 144.12257385 C-385.53762284 123.23139212 -358.38034639 104.75936089 -330.30179596 88.31007385 C-329.53802643 87.85825745 -328.7742569 87.40644104 -327.98734283 86.94093323 C-258.6840883 46.0525724 -182.68757049 19.84748675 -103.30179596 7.31007385 C-102.62991241 7.20328308 -101.95802887 7.09649231 -101.26578522 6.98646545 C-91.96902002 5.51794296 -82.65696359 4.33607853 -73.30179596 3.31007385 C-71.36288483 3.08577698 -71.36288483 3.08577698 -69.38480377 2.85694885 C-46.30513294 0.24419226 -23.19877812 0.02014006 0 0 Z " fill="#FFFFFF" transform="translate(2437.3017959594727,1007.6899261474609)"/>
<path d="M0 0 C1.48072698 1.24466906 2.93820727 2.51736289 4.375 3.8125 C5.62796875 4.92625 5.62796875 4.92625 6.90625 6.0625 C18.79420434 17.23431251 25.67415406 31.70864742 26.55010986 48.08656311 C26.61879639 57.79722489 25.62049615 67.09243674 24.171875 76.68359375 C23.93523913 78.30224404 23.69940679 79.92101197 23.46430969 81.53988647 C22.83114393 85.87627828 22.18336118 90.21035822 21.53133011 94.54394913 C21.12128035 97.2747719 20.71487328 100.00611385 20.30953979 102.73764038 C8.91085858 179.5013244 -4.59833855 255.87527464 -20.625 331.8125 C-20.8624292 332.94119507 -21.0998584 334.06989014 -21.34448242 335.23278809 C-29.26157112 372.85641787 -37.7964051 410.29826277 -47.07691956 447.60874176 C-47.65127607 449.91815256 -48.22500351 452.22771914 -48.79870605 454.53729248 C-64.92331543 519.42225438 -82.20335667 583.82478088 -101.625 647.8125 C-102.29090418 650.01023836 -102.95675776 652.20799205 -103.62255859 654.40576172 C-107.64180505 667.66254284 -111.70033964 680.90685121 -115.79785156 694.13964844 C-116.5674221 696.62644249 -117.33477058 699.11391057 -118.1015625 701.6015625 C-135.03849732 756.45915406 -153.31267582 811.00192152 -173.29769897 864.82312012 C-175.79142445 871.54007843 -178.24732344 878.26949522 -180.671875 885.01171875 C-202.02798145 944.36103659 -225.15041017 1003.0382099 -249.53314209 1061.20623779 C-250.65730035 1063.88960086 -251.77928106 1066.57386659 -252.90087891 1069.25830078 C-263.75777032 1095.23090043 -274.92263642 1121.05248732 -286.37890625 1146.76611328 C-288.53176949 1151.59951821 -290.67336437 1156.43785112 -292.8125 1161.27734375 C-307.28810767 1194.00707034 -322.23741726 1226.50161727 -337.625 1258.8125 C-338.16576172 1259.94800293 -338.70652344 1261.08350586 -339.26367188 1262.25341797 C-342.17700256 1268.36137298 -345.10844178 1274.46038838 -348.05224609 1280.55371094 C-349.42330432 1283.39458104 -350.78981265 1286.23759473 -352.15507507 1289.08125305 C-361.7560192 1309.06183493 -371.62036816 1328.91069515 -381.52761459 1348.74066544 C-382.5495656 1350.78660541 -383.57083045 1352.83288662 -384.59194946 1354.87924194 C-391.76728123 1369.2551555 -399.01088132 1383.5847234 -406.54898071 1397.77484131 C-408.28482699 1401.06201496 -409.98393222 1404.36779139 -411.6796875 1407.67578125 C-412.15269287 1408.59789398 -412.15269287 1408.59789398 -412.63525391 1409.53863525 C-413.26714865 1410.77079744 -413.89893365 1412.00301592 -414.53060913 1413.23529053 C-419.96981751 1423.83836501 -425.50205367 1434.37531601 -431.25952148 1444.81005859 C-434.97662348 1451.56533985 -438.53239494 1458.39546281 -442.0625 1465.25 C-461.17348103 1502.14556658 -461.17348103 1502.14556658 -470.625 1510.8125 C-471.23085937 1511.43511719 -471.83671875 1512.05773438 -472.4609375 1512.69921875 C-484.51850256 1524.4260911 -500.56373111 1528.31020535 -516.85571289 1528.16210938 C-535.293469 1527.67478231 -549.03709417 1519.85607663 -561.625 1506.8125 C-572.33989526 1495.2028327 -577.48086143 1478.46413002 -576.88671875 1462.83203125 C-575.11174534 1442.35360668 -563.75809575 1424.58147533 -553.984375 1406.921875 C-549.9938135 1399.6983314 -546.11885947 1392.41421172 -542.25 1385.125 C-541.88721954 1384.44169617 -541.52443909 1383.75839233 -541.15066528 1383.05438232 C-534.46525965 1370.45465717 -527.8813289 1357.80397794 -521.33984375 1345.12890625 C-519.57625693 1341.71823379 -517.80485412 1338.31172313 -516.03125 1334.90625 C-510.16004948 1323.62734387 -504.31844854 1312.33909326 -498.70239258 1300.93041992 C-496.29469445 1296.0630162 -493.80333155 1291.24693613 -491.25723267 1286.45091248 C-485.09422481 1274.8341489 -479.26132782 1263.07024739 -473.5 1251.25 C-473.00054871 1250.22748138 -472.50109741 1249.20496277 -471.98651123 1248.15145874 C-464.01452117 1231.82746026 -456.18884627 1215.44070236 -448.50938416 1198.97735596 C-446.15639005 1193.93694553 -443.78005081 1188.90790247 -441.39453125 1183.8828125 C-431.93465063 1163.94971216 -422.64395898 1143.94923838 -413.625 1123.8125 C-413.33189941 1123.15817993 -413.03879883 1122.50385986 -412.73681641 1121.82971191 C-400.71323336 1094.96316547 -389.15523752 1067.89356203 -377.625 1040.8125 C-377.07169006 1039.51348755 -377.07169006 1039.51348755 -376.50720215 1038.18823242 C-359.24997019 997.65810631 -342.58599004 956.87066028 -326.625 915.8125 C-326.28893738 914.94913025 -325.95287476 914.0857605 -325.60662842 913.19622803 C-308.29249662 868.69793168 -291.95195372 823.84534357 -276.36428833 778.7141571 C-274.16873266 772.36355338 -271.94267233 766.02408909 -269.70703125 759.6875 C-259.79968103 731.56346275 -250.55276484 703.26162553 -241.625 674.8125 C-240.88754704 672.46695508 -240.15007932 670.1214148 -239.41259766 667.77587891 C-212.45432367 581.95190826 -187.80245498 495.33385124 -137.79044342 276.48346615 C-136.81526357 271.72787991 -135.82481627 266.97566993 -134.82633972 262.22492981 C-121.98794497 201.07147147 -112.29580188 139.11423907 -103.37109375 77.28515625 C-103.19009628 76.0378775 -103.00909882 74.79059875 -102.82261658 73.50552368 C-101.97126812 67.63739611 -101.12951645 61.76834687 -100.3112793 55.89550781 C-97.0992529 33.26547453 -91.77308197 15.83419227 -73.625 0.8125 C-65.75273592 -5.04199408 -57.28643728 -8.50976538 -47.625 -10.1875 C-46.408125 -10.414375 -45.19125 -10.64125 -43.9375 -10.875 C-28.74011968 -12.30871512 -12.44000852 -9.24301332 0 0 Z " fill="#FFFFFF" transform="translate(3181.625,2149.1875)"/>
<path d="M0 0 C1.14275391 0.99773437 1.14275391 0.99773437 2.30859375 2.015625 C2.93636719 2.53640625 3.56414062 3.0571875 4.2109375 3.59375 C13.87866797 12.27497736 20.34737452 26.38954895 21.50660706 39.20462036 C22.21492085 52.79973662 20.27386631 65.25043197 17.17907715 78.44659424 C15.85899349 84.1025053 14.62733524 89.77765457 13.39453125 95.453125 C13.00714783 97.23174423 13.00714783 97.23174423 12.61193848 99.04629517 C1.85550157 149.04136309 -4.60061704 200.05561915 -10.50493622 250.81924057 C-10.74174009 252.8488507 -10.98141852 254.87812484 -11.22125244 256.90737915 C-16.86808796 304.97365208 -20.53928951 353.27743672 -24.3125 401.51953125 C-24.39002479 402.51062039 -24.46754958 403.50170953 -24.5474236 404.52283168 C-25.98926678 422.96495836 -27.42034338 441.40792255 -28.84573603 459.85132748 C-32.12985529 502.33884274 -35.43666608 544.81798354 -39.46875 587.2421875 C-39.57580517 588.37155601 -39.57580517 588.37155601 -39.68502307 589.52374005 C-42.18262167 615.8506282 -45.02674047 642.13176272 -48.35540771 668.36724854 C-48.68004067 670.92604025 -49.00159736 673.48520359 -49.32275391 676.04443359 C-55.74503958 726.96391558 -64.15690741 778.05154231 -76.19586182 827.95727539 C-76.76756606 830.33197105 -77.3335243 832.70801287 -77.89990234 835.08398438 C-84.8271898 864.04752893 -92.58358711 892.65979154 -101.69140625 921.015625 C-101.93892639 921.78741089 -102.18644653 922.55919678 -102.44146729 923.35437012 C-121.25352852 981.8163717 -146.10090286 1039.27811156 -177.82958984 1091.91748047 C-179.51697218 1094.72535902 -181.18833991 1097.54184346 -182.85359192 1100.362854 C-193.00935975 1117.56290792 -203.57259792 1134.41851045 -214.69140625 1151.015625 C-215.58666016 1152.35536377 -215.58666016 1152.35536377 -216.5 1153.72216797 C-222.93481155 1163.32513929 -229.59433328 1172.71209922 -236.58984375 1181.9140625 C-239.42055602 1185.64040849 -242.19159751 1189.40831131 -244.95556641 1193.18432617 C-254.97065469 1206.86363696 -265.4908212 1220.07934847 -276.21484375 1233.20703125 C-277.52188166 1234.8079798 -278.82563981 1236.41160476 -280.12890625 1238.015625 C-284.97351525 1243.9675732 -289.90098772 1249.84432424 -294.87109375 1255.69140625 C-296.73949217 1257.88971193 -298.59844769 1260.09542936 -300.44921875 1262.30859375 C-305.88022271 1268.79160115 -311.45481223 1275.10186283 -317.19921875 1281.30859375 C-319.84071029 1284.17780008 -322.4115913 1287.09891133 -324.96875 1290.04296875 C-330.88798256 1296.82122826 -336.97476762 1303.45140049 -343.1015625 1310.04199219 C-345.63127263 1312.76592499 -348.13513618 1315.50547971 -350.5859375 1318.30078125 C-361.38865194 1330.55886138 -375.2881205 1339.74950266 -391.99658203 1341.21826172 C-394.33670711 1341.31776778 -396.66177711 1341.34450016 -399.00390625 1341.328125 C-399.83132324 1341.32393555 -400.65874023 1341.31974609 -401.51123047 1341.31542969 C-420.23074403 1340.97235418 -435.20867265 1332.48651357 -448.07421875 1319.23828125 C-452.92500775 1313.61101064 -455.89171608 1306.83257894 -458.69140625 1300.015625 C-459.26375 1298.64664063 -459.26375 1298.64664063 -459.84765625 1297.25 C-464.75074707 1282.81312148 -462.46751047 1265.68414183 -456.37109375 1252.06640625 C-451.81501812 1243.14097941 -445.54494862 1235.63741604 -438.37890625 1228.6953125 C-436.70602421 1227.03017529 -435.16599525 1225.30633368 -433.62890625 1223.515625 C-430.14312441 1219.46330525 -426.48319204 1215.59045111 -422.81640625 1211.703125 C-417.92738863 1206.50681969 -413.28720406 1201.20221634 -408.83203125 1195.625 C-406.5402016 1192.83130984 -404.13908813 1190.17353722 -401.69140625 1187.515625 C-397.63601682 1183.10406115 -393.80666885 1178.56374618 -390.04296875 1173.90234375 C-387.44692503 1170.71550603 -384.7938236 1167.58230093 -382.12890625 1164.453125 C-378.28540492 1159.92949792 -374.51206549 1155.36239621 -370.828125 1150.70703125 C-369.23816399 1148.70431985 -367.6371267 1146.71387877 -366.0234375 1144.73046875 C-357.91186992 1134.73156975 -350.26201674 1124.42787115 -342.69140625 1114.015625 C-341.58470911 1112.50124822 -340.47793978 1110.98692421 -339.37109375 1109.47265625 C-331.59301146 1098.80070243 -324.04975111 1087.98100166 -316.69140625 1077.015625 C-316.12228516 1076.17 -315.55316406 1075.324375 -314.96679688 1074.453125 C-298.9114524 1050.50375434 -283.98689426 1025.60582215 -270.69140625 1000.015625 C-270.38307861 999.42324036 -270.07475098 998.83085571 -269.75708008 998.22052002 C-251.8928297 963.84753348 -237.473139 928.56975858 -224.69140625 892.015625 C-224.44926392 891.32398254 -224.20712158 890.63234009 -223.9576416 889.91973877 C-205.97683588 838.36826726 -194.29298721 784.6806193 -184.69140625 731.015625 C-184.55667908 730.26502808 -184.4219519 729.51443115 -184.28314209 728.74108887 C-169.80408578 647.7514806 -163.29993159 565.40327999 -155.463871 464.25680161 C-142.71827292 299.56826332 -142.71827292 299.56826332 -106.00390625 52.453125 C-105.72401855 51.1140358 -105.72401855 51.1140358 -105.43847656 49.74789429 C-101.40650669 30.52935826 -96.78713266 15.36039251 -82.69140625 1.015625 C-82.12679688 0.438125 -81.5621875 -0.139375 -80.98046875 -0.734375 C-58.66594379 -21.63383252 -22.25084575 -18.74486225 0 0 Z " fill="#FFFFFF" transform="translate(1815.69140625,1654.984375)"/>
<path d="M0 0 C12.84677706 10.35151078 23.06158812 24.21297677 25 41 C25.25357646 44.459043 25.37563514 47.90747442 25.4375 51.375 C25.47133789 52.63111084 25.47133789 52.63111084 25.50585938 53.91259766 C25.44793321 69.02842997 18.25659847 83.72961771 12.9375 97.625 C12.16582892 99.65175342 11.39442853 101.67860992 10.62329102 103.70556641 C8.42559151 109.47425634 6.21532949 115.23806064 4 121 C3.58113525 122.09066772 3.58113525 122.09066772 3.15380859 123.20336914 C-21.22399372 186.64336333 -48.39928721 249.03764594 -77.40924072 310.48565674 C-79.39263933 314.69333968 -81.34775513 318.913303 -83.2890625 323.140625 C-89.46964272 336.59396247 -95.87651086 349.90026285 -102.54370117 363.11694336 C-106.39802775 370.76201757 -110.15455772 378.44613589 -113.8125 386.1875 C-117.41903534 393.80575503 -121.19318179 401.3023357 -125.16577148 408.73583984 C-128.52413402 415.0361464 -131.70983874 421.41330309 -134.875 427.8125 C-139.11820103 436.36304975 -143.5348916 444.789257 -148.14794922 453.14550781 C-152.3169296 460.70672312 -156.36190193 468.32891066 -160.39208984 475.96456909 C-166.42320923 487.3850545 -172.57557511 498.70618752 -179.05078125 509.8828125 C-182.39352312 515.6548923 -185.63050102 521.48482397 -188.875 527.3125 C-194.01467963 536.52511998 -199.26589716 545.66486424 -204.60668945 554.76220703 C-207.76728127 560.15212525 -210.8982267 565.55707193 -213.98046875 570.9921875 C-214.31572067 571.5832579 -214.6509726 572.17432831 -214.99638367 572.78330994 C-215.50102898 573.67307274 -215.50102898 573.67307274 -216.01586914 574.58081055 C-222.32382921 585.7013083 -228.79370217 596.69023885 -235.5859375 607.5234375 C-239.27242738 613.40911683 -242.86348363 619.35172275 -246.45599365 625.29495239 C-253.0452607 636.19292186 -259.72967183 647.02250943 -266.57617188 657.76123047 C-268.57437696 660.90312702 -270.55623929 664.05523195 -272.53955078 667.20654297 C-277.64267833 675.31035533 -282.79779797 683.37841253 -288.01660156 691.40820312 C-289.96910351 694.41289993 -291.92041971 697.41835996 -293.87060547 700.42456055 C-301.48318248 712.15408555 -309.13340065 723.85842958 -316.8215332 735.53857422 C-318.07206594 737.4394887 -319.32140303 739.34119025 -320.56958008 741.24365234 C-327.1934284 751.33918609 -333.85449912 761.37887205 -340.94165039 771.15625 C-343.48255455 774.66668194 -345.93822489 778.22947543 -348.375 781.8125 C-357.797059 795.57956867 -367.48231612 809.15965602 -377.29394531 822.65136719 C-378.46226149 824.25972461 -379.62816059 825.86983981 -380.79199219 827.48144531 C-394.53937757 846.51006275 -394.53937757 846.51006275 -402 854 C-402.60457031 854.62777344 -403.20914062 855.25554688 -403.83203125 855.90234375 C-414.35615256 866.02765626 -428.99752274 871.00406405 -443.375 871.375 C-460.98293113 870.97809991 -476.7814076 864.98140337 -489.6875 852.875 C-502.89027402 838.93873854 -507.55629268 822.61449995 -507.28125 803.9453125 C-507.02260767 797.21285253 -505.4253403 791.29780032 -503 785 C-502.54367187 783.78763672 -502.54367187 783.78763672 -502.078125 782.55078125 C-498.3455216 774.09499894 -492.21963583 766.76665063 -486.75390625 759.37890625 C-483.97311574 755.60718817 -481.23791557 751.80289154 -478.5 748 C-475.25831619 743.5056258 -472.01260375 739.01437396 -468.75 734.53515625 C-461.61079076 724.71954775 -454.68123948 714.77968731 -447.86669922 704.73632812 C-446.45232746 702.66305077 -445.03206033 700.5944812 -443.60595703 698.52929688 C-436.34069144 688.00539787 -429.21085671 677.39537127 -422.125 666.75 C-421.55417694 665.89315613 -420.98335388 665.03631226 -420.39523315 664.15350342 C-412.63313369 652.50063784 -404.90215028 640.83055245 -397.32519531 629.05615234 C-395.95898328 626.93635909 -394.58587354 624.82117506 -393.2109375 622.70703125 C-386.93491883 613.05136387 -380.75304515 603.338648 -374.62744141 593.58691406 C-372.94773753 590.91692573 -371.26108567 588.25140502 -369.57421875 585.5859375 C-360.25777272 570.82010592 -351.32271356 555.84668783 -342.44477844 540.81510925 C-338.74903932 534.56331304 -335.00103684 528.34377194 -331.25 522.125 C-319.12100007 501.97007682 -307.5252299 481.50450641 -296 461 C-295.42894531 459.98550781 -294.85789062 458.97101562 -294.26953125 457.92578125 C-282.31211133 436.67694453 -270.62030924 415.31874424 -259.39208984 393.67529297 C-257.73087141 390.48279356 -256.05355273 387.29904819 -254.37207031 384.1171875 C-252.24033252 380.08217516 -250.1202552 376.04105436 -248 372 C-247.5241748 371.09491699 -247.04834961 370.18983398 -246.55810547 369.25732422 C-237.43242833 351.86468598 -228.59608486 334.3261415 -219.79357147 316.76836777 C-218.89406765 314.97550504 -217.99285903 313.18349797 -217.09161377 311.39151001 C-208.87665206 295.04838349 -201.00729979 278.58331821 -193.36810303 261.9659729 C-191.59403573 258.11989156 -189.79163294 254.28780133 -187.9765625 250.4609375 C-179.29049113 232.1075021 -170.98137409 213.60987976 -162.87054443 194.9956665 C-162.03889669 193.08916813 -161.20484485 191.1837461 -160.36962891 189.27880859 C-142.1832325 147.78348583 -124.91932837 105.90677072 -108.88671875 63.53125 C-108.45746597 62.39732315 -108.0282132 61.2633963 -107.58595276 60.09510803 C-105.4912534 54.55706727 -103.40439577 49.01625779 -101.33032227 43.47045898 C-100.56924208 41.44772798 -99.8080962 39.42502169 -99.046875 37.40234375 C-98.54319649 36.04411499 -98.54319649 36.04411499 -98.02934265 34.65844727 C-93.91359755 23.75487443 -89.26546333 15.29269714 -81 7 C-79.96552734 5.93072266 -79.96552734 5.93072266 -78.91015625 4.83984375 C-57.87250517 -15.49263467 -23.56837203 -16.52041389 0 0 Z " fill="#FFFFFF" transform="translate(2353,2697)"/>
<path d="M0 0 C13.75184257 11.77451839 22.81460679 26.24421801 24.37109375 44.56762695 C24.70604497 49.38389813 24.89840465 54.20510916 25.08984375 59.02880859 C25.16301304 60.61349282 25.23722973 62.19812903 25.3125 63.78271484 C26.57630662 91.3247725 27.12722562 118.86463221 27.13210082 146.4324646 C27.13282981 148.77187316 27.1349973 151.1112764 27.13759804 153.45068359 C27.14676287 161.732751 27.15094524 170.01480269 27.15014648 178.296875 C27.14961708 184.99188659 27.15661099 191.68683931 27.1706543 198.38183594 C27.25428754 239.18659564 26.84584412 279.8770987 25.08212662 320.6505661 C24.91577552 324.55569675 24.76532333 328.46137701 24.6159668 332.3671875 C24.35089421 339.15210748 24.04839564 345.93442404 23.71484375 352.71630859 C23.65648346 353.91091705 23.59812317 355.10552551 23.53799438 356.33633423 C18.72138412 452.99731566 8.11898075 549.12370079 -19.03515625 693.40380859 C-19.27961487 694.65083557 -19.52407349 695.89786255 -19.77593994 697.18267822 C-22.93221896 713.27154228 -26.14186524 729.34896852 -29.42449951 745.41253662 C-30.01594741 748.30971504 -30.60414504 751.20753812 -31.19189453 754.10546875 C-32.06715219 758.4109985 -32.95730247 762.71317067 -33.86071777 767.01287842 C-34.17597347 768.5203602 -34.48734612 770.02866145 -34.79406738 771.53790283 C-37.55632242 785.08425586 -41.14918643 799.49016781 -50.03515625 810.40380859 C-50.76605469 811.30744141 -51.49695312 812.21107422 -52.25 813.14208984 C-62.01435387 824.54154878 -75.92438541 833.26461931 -91.25488281 834.59667969 C-111.45527944 835.26893976 -127.28548604 832.44086407 -142.66137695 818.34130859 C-155.21172053 806.28355864 -161.82728866 791.05491844 -162.41015625 773.59130859 C-162.2709671 762.29378924 -159.43663776 751.39519255 -157.03515625 740.40380859 C-148.50021747 701.23447852 -140.79191863 661.93080126 -133.43183136 622.52600098 C-133.05151122 620.4913069 -132.67017725 618.45680564 -132.28851318 616.42236328 C-121.74443137 560.13884434 -113.97161941 503.4563746 -109.03515625 446.40380859 C-108.93158813 445.21501099 -108.82802002 444.02621338 -108.72131348 442.8013916 C-101.89043057 364.13490683 -98.82530593 285.35657044 -98.03515625 206.40380859 C-98.02313171 205.24355164 -98.01110718 204.08329468 -97.99871826 202.88787842 C-97.70099703 173.03590489 -98.14521164 143.24000409 -99.03515625 113.40380859 C-100.29049459 71.08590808 -100.29049459 71.08590808 -100.38964844 57.19262695 C-100.40299878 55.58057262 -100.42315392 53.96855558 -100.45117188 52.35668945 C-100.74490529 34.53364171 -95.69126834 19.70233246 -83.3125 6.68505859 C-82.56097656 5.93224609 -81.80945312 5.17943359 -81.03515625 4.40380859 C-80.39707031 3.75412109 -79.75898438 3.10443359 -79.1015625 2.43505859 C-58.17807796 -17.40092675 -22.29433461 -17.48564775 0 0 Z " fill="#FFFFFF" transform="translate(2489.03515625,1748.59619140625)"/>
<path d="M0 0 C16.78709636 -0.56365433 32.24673351 5.48047272 45.00390625 16.2265625 C56.46332776 27.12080846 64.21525078 41.74359083 64.75390625 57.69921875 C65.10060783 79.79494351 57.56706609 94.37904945 45.671875 112.40625 C43.50521926 115.69033519 41.37658155 118.9951957 39.2734375 122.3203125 C27.03325833 141.65865478 14.2835293 160.65534887 1.55224609 179.67236328 C-0.24868764 182.36316187 -2.04658903 185.0558735 -3.83740234 187.75341797 C-7.83844755 193.77938823 -11.90893055 199.74658919 -16.07421875 205.66015625 C-17.2943581 207.39707412 -18.51440759 209.13405512 -19.734375 210.87109375 C-20.34941895 211.74604492 -20.96446289 212.62099609 -21.59814453 213.52246094 C-23.40620927 216.09886973 -25.20816685 218.67942378 -27.0078125 221.26171875 C-37.5288326 236.35257832 -48.27983031 251.26225245 -59.21875 266.05273438 C-62.63011931 270.67056356 -66.00307757 275.31302259 -69.34448242 279.98168945 C-75.95494399 289.21300343 -82.84127637 298.19736279 -89.85498047 307.125 C-92.15443827 310.06041811 -94.42922424 313.01442834 -96.69921875 315.97265625 C-97.88451172 317.51566406 -97.88451172 317.51566406 -99.09375 319.08984375 C-100.28458023 320.64207021 -101.47539518 322.19430856 -102.66552734 323.74707031 C-111.83987383 335.7155049 -121.12687545 347.57763764 -130.671875 359.25341797 C-134.11450356 363.4776218 -137.46593288 367.75829048 -140.76171875 372.09765625 C-152.43481474 387.26893967 -165.03915809 398.5591375 -184.44921875 402.16015625 C-196.54306021 403.29290934 -208.09488716 402.63083179 -219.44921875 398.16015625 C-220.32449219 397.83273437 -221.19976563 397.5053125 -222.1015625 397.16796875 C-229.82527944 393.82468527 -235.59103375 388.03291903 -241.44921875 382.16015625 C-242.22910156 381.391875 -243.00898437 380.62359375 -243.8125 379.83203125 C-248.89411121 374.51117281 -251.89651511 369.03505127 -254.44921875 362.16015625 C-254.76890625 361.37769531 -255.08859375 360.59523438 -255.41796875 359.7890625 C-260.58910358 344.82628811 -258.66634409 326.27742891 -252.046875 312.171875 C-247.66216814 304.07785623 -241.8110728 297.11068495 -235.98242188 290.03613281 C-233.59302879 287.11255057 -231.27162251 284.137025 -228.94921875 281.16015625 C-225.68366064 276.98697716 -222.39293865 272.83604882 -219.07080078 268.70776367 C-213.76396652 262.11187945 -208.56795149 255.44197495 -203.44360352 248.70336914 C-200.0821357 244.28536882 -196.68808925 239.89542481 -193.26513672 235.52490234 C-186.06487694 226.32757804 -179.09191746 216.98065061 -172.19921875 207.55126953 C-169.87316202 204.37306087 -167.53657065 201.20268574 -165.19897461 198.03295898 C-164.03238892 196.45097959 -162.86653591 194.86845965 -161.70141602 193.28540039 C-158.78229433 189.319455 -155.8557153 185.3594246 -152.9140625 181.41015625 C-145.95147188 172.04551037 -139.22586884 162.55840412 -132.6796875 152.8984375 C-130.12311825 149.13130478 -127.51285142 145.40662794 -124.87890625 141.69335938 C-114.24638432 126.68198481 -104.15429549 111.30137446 -93.98023987 95.97781372 C-91.02372579 91.52560009 -88.059899 87.07858529 -85.08203125 82.640625 C-79.77282297 74.72786267 -74.52965811 66.78464051 -69.44921875 58.72265625 C-68.96815674 57.95928955 -68.48709473 57.19592285 -67.99145508 56.40942383 C-65.27904369 52.0947365 -62.58765968 47.7676096 -59.90625 43.43359375 C-48.04164732 24.3662773 -48.04164732 24.3662773 -40.44921875 17.16015625 C-39.50755859 16.20689453 -39.50755859 16.20689453 -38.546875 15.234375 C-28.14145791 5.29709529 -14.0810005 0.92076718 0 0 Z " fill="#FFFFFF" transform="translate(1741.44921875,2802.83984375)"/>
</svg>
